<svg id="Layer_2" data-name="Layer 2" xmlns="http://www.w3.org/2000/svg" viewBox="0 0 375 408.17"><defs><style>.cls-1{fill:#24d5ff;}.cls-2{fill:#40f1ff;}.cls-3{fill:#ff809a;}</style></defs><title>AI</title><path class="cls-1" d="M187.33,417.41V450h67.36c0-.14,0-.28,0-.42V433.83h-48.4c-4.51,0-4.38-7,.12-7h48.27v-45H219.83v25.23c0,4.51-7,4.38-7-.12V381.83H173.61a3.2,3.2,0,0,1-3.3-3.26,3.72,3.72,0,0,1-.13-1V312.5H148.27c-4.51,0-4.38-7,.12-7h48c4.51,0,4.38,7-.12,7H177.17v62.33h35.67V337.17H198.27c-4.51,0-4.38-7,.12-7h15.14c1.77-2.19,6.3-1.4,6.3,2.23v42.44h34.83v-63H219.8c-1.77,2.19-6.3,1.4-6.3-2.23V292.27c0-4.51,7-4.38,7,.12v12.44h34.17V299.4a3.94,3.94,0,0,1,0-3.34v-86.9h-37.5v67.23a3.11,3.11,0,0,1-1.54,2.82,3.24,3.24,0,0,1-2.69,1.28H148.27c-4.51,0-4.38-7,.12-7h29.77V238.94c0-4.51,7-4.38,7,.12V273.5h25V205.61a3.2,3.2,0,0,1,3.26-3.3,3.72,3.72,0,0,1,1-.13h40.27V175.83h-42.4c-4.51,0-4.38-7,.12-7h42.27v-43.5H228v23.93c1.38,3-.13,7.4-4.42,7.4H197.33v30.42A5.1,5.1,0,0,1,197,189a4.69,4.69,0,0,1-4.73,3.67H148.67v47.09c0,4.21-4.27,5.59-7.23,4.25H123.33V346.67h17.75c4.21,0,5.59,4.27,4.25,7.23V408h33.54a5.5,5.5,0,0,1,6.8,0C190.63,408.53,191.11,415.36,187.33,417.41ZM160.17,205.61c0-4.51,7-4.38,7,.12V217.5h17.89c4.51,0,4.38,7-.12,7H163.61a3,3,0,0,1-.72-.07,3,3,0,0,1-2.25-1.77,3.6,3.6,0,0,1-.47-1.72Z" transform="translate(-83 -87.83)"/><path class="cls-2" d="M400.58,244c-3,1.34-7.23,0-7.23-4.25V192.67H349.77A4.69,4.69,0,0,1,345,189a5.1,5.1,0,0,1-.35-1.91V156.67H318.44c-4.29,0-5.8-4.44-4.42-7.4V125.33H287.35V171.5h33c4.51,0,4.38,7-.12,7H287.35v89.67h18.81V211.61c0-3.58,4.38-4.22,6.21-2.11h26c4.51,0,4.38,7-.12,7H313.17v51.67h39.67V224.27a3.62,3.62,0,0,1,.16-1.05,3.32,3.32,0,0,1,3.4-3.05h23.33c4.51,0,4.38,7-.12,7H359.83v42.56A3.21,3.21,0,0,1,359,272a3.34,3.34,0,0,1-3.41,3.21H340.5v37h60.56c4.51,0,4.38,7-.12,7H364.5V375.5h24.56c4.51,0,4.38,7-.12,7h-28a3.27,3.27,0,0,1-3.28-3.86,3.68,3.68,0,0,1-.16-1V319.17H336.94a3.2,3.2,0,0,1-3.3-3.26,3.72,3.72,0,0,1-.13-1V275.17H287.35v71.67H303.5V309a3.89,3.89,0,0,1,.06-4c.48-3,4.43-3.47,6.14-1.48h12c4.51,0,4.38,7-.12,7H310.5v36.33h25.89c4.51,0,4.38,7-.12,7H287.35v27h19a3.62,3.62,0,0,1,1.05.16,3.32,3.32,0,0,1,3.05,3.4v31.77h24.56c4.51,0,4.38,7-.12,7H307.61a3.11,3.11,0,0,1-2.82-1.54,3.24,3.24,0,0,1-1.28-2.69V387.83H287.35v61.75c0,.14,0,.28,0,.42h67.36V417.41c-3.78-2.06-3.3-8.89,1.66-9.38a5.5,5.5,0,0,1,6.8,0h33.54V353.89c-1.34-3,0-7.23,4.25-7.23h17.75V244ZM348.94,396.5h-16a3.11,3.11,0,0,1-2.82-1.54,3.24,3.24,0,0,1-1.28-2.69V373.61c0-4.51,7-4.38,7,.12V389.5h13.23C353.58,389.5,353.44,396.5,348.94,396.5Zm58.67-110.67H386.37c-2.05,1.27-5.53.28-5.53-2.89V262.27c0-4.51,7-4.38,7,.12v16.44h19.89C412.24,278.83,412.11,285.83,407.61,285.83Z" transform="translate(-83 -87.83)"/><rect class="cls-3" x="193.5" width="3.5" height="408.17"/><rect class="cls-3" x="180.83" width="5.67" height="408.17"/><path class="cls-3" d="M83,87.83V496H268.83V87.83ZM260,460H184.74a5.59,5.59,0,0,1-5.69-.65c-2.19-1.31-2.74-4.32-1.72-6.57V418H143.58a4.73,4.73,0,0,1-2.82-.85,4.88,4.88,0,0,1-5.43-4.91V356.67H121.58a4.52,4.52,0,0,1-3.56-1.52,4.79,4.79,0,0,1-4.69-4.9v-112c0-4.21,4.27-5.59,7.23-4.25h18.11V190.07a5.59,5.59,0,0,1,.65-5.69c1.31-2.19,4.32-2.74,6.58-1.72h41.44V150.91c0-4.21,4.27-5.59,7.23-4.25H218V123.79c-2.1-2.46-1.34-7.12,2.15-8.22a5.61,5.61,0,0,1,5.08-.24h33.86a4.46,4.46,0,0,1,4.51,3.29,4.77,4.77,0,0,1,1.07,3.13v328a4.93,4.93,0,0,1-.52,2.28C266,455,264.59,460,260,460Z" transform="translate(-83 -87.83)"/><rect class="cls-3" x="180.83" width="5.67" height="408.17"/><path class="cls-3" d="M268.5,87.83V496H458V87.83ZM427.67,350.25a4.79,4.79,0,0,1-4.69,4.9,4.52,4.52,0,0,1-3.56,1.52H405.67v55.58a4.88,4.88,0,0,1-5.43,4.91,4.73,4.73,0,0,1-2.82.85H363.67v34.77c1,2.25.47,5.27-1.72,6.57a5.59,5.59,0,0,1-5.69.65H281c-4.56,0-6-5-4.11-8a4.93,4.93,0,0,1-.52-2.28V272.35a4,4,0,0,1,0-1.18V121.75a4.77,4.77,0,0,1,1.07-3.13,4.46,4.46,0,0,1,4.51-3.29h33.86a5.61,5.61,0,0,1,5.08.24c3.49,1.1,4.25,5.76,2.15,8.22v22.88h23.44c3-1.34,7.23,0,7.23,4.25v31.75h41.44c2.25-1,5.27-.47,6.58,1.72a5.59,5.59,0,0,1,.65,5.69V234h18.11c3-1.34,7.23,0,7.23,4.25Z" transform="translate(-83 -87.83)"/></svg>