<svg xmlns="http://www.w3.org/2000/svg" viewBox="0 0 412 412"><defs><style>.cls-1{fill:#ff596c;}.cls-2{fill:#16aaff;}</style></defs><title>Android App</title><g id="Layer_3" data-name="Layer 3"><path class="cls-1" d="M312.05,365.5H298.89c0,11.25-.09,22.13.11,33a6,6,0,0,0,2.35,4.29c5.21,3.33,10.86.15,10.88-5.94,0-9.55,0-19.1,0-28.65C312.23,367.3,312.12,366.42,312.05,365.5Z" transform="translate(-60.08 -58.91)"/><path class="cls-1" d="M193.83,222.54c0,33.72-.19,67.44.1,101.15.12,13.95,12.16,26.79,26.07,28.09,8.36.78,16.82.4,25.24.43,20.86.08,41.73.27,62.59.08,17.39-.16,30.52-13.85,30.52-31.3q0-48.11,0-96.22v-3.84H194.06A12,12,0,0,0,193.83,222.54Z" transform="translate(-60.08 -58.91)"/><path class="cls-1" d="M233.28,365.54H220c0,.76-.12,1.35-.12,1.95,0,10,0,19.92,0,29.88,0,4.69,1.86,6.38,6.67,6.38s6.62-1.67,6.67-6.39c.06-6.16,0-12.32,0-18.48C233.28,374.49,233.28,370.11,233.28,365.54Z" transform="translate(-60.08 -58.91)"/><path class="cls-1" d="M331.38,178.94c-4.65-19.29-15.73-33.23-34.43-40.42-16.16-6.22-32.89-6.78-49.73-3.49C232,138,219,144.91,209.91,158a58,58,0,0,0-9.48,23.09H331.59A17,17,0,0,0,331.38,178.94Z" transform="translate(-60.08 -58.91)"/><path class="cls-1" d="M154.33,230a20.78,20.78,0,0,0-.19-3.38c-.59-3.56-3.18-5.85-6.48-5.85s-5.89,2.29-6.49,5.83a18.36,18.36,0,0,0-.19,3.07q0,30.52,0,61a14.69,14.69,0,0,0,.56,4.55,6.47,6.47,0,0,0,12.19,0,14.69,14.69,0,0,0,.57-4.55c0-10.17,0-20.35,0-30.52S154.34,240.09,154.33,230Z" transform="translate(-60.08 -58.91)"/><path class="cls-2" d="M60.08,58.91v412h412v-412ZM186.34,184.58c2.64-18.39,9.89-34.4,24.25-47-3.54-4.61-6.88-8.92-10.17-13.25-3-4-2.85-7.85.42-10.31s7.05-1.52,10.09,2.39,6.06,8,9.25,11.93a3.23,3.23,0,0,0,2.88.9c28.29-12.89,56.63-12.11,85.59-.6,3.12-4,6.5-8.39,9.84-12.77,1.68-2.19,3.75-3.5,6.59-3.07,5.23.8,7.32,6.35,4,10.84-3,4.12-6.22,8.13-9,11.71,4.75,5.61,9.71,10.68,13.73,16.41,7.35,10.46,10.69,22.53,12.3,35.09a6.58,6.58,0,0,1-6.07,7.49,22.85,22.85,0,0,1-2.77.05H194.94C187.62,194.45,185.32,191.74,186.34,184.58Zm-19,75.65c0,10.69,0,21.38,0,32.07,0,11.56-8.63,20.54-19.69,20.57s-19.77-9-19.78-20.48q0-32.22,0-64.44c0-11.56,8.67-20.42,19.84-20.37s19.58,8.87,19.62,20.28C167.42,238.65,167.39,249.44,167.39,260.23Zm184.28,59.49c-.08,18.53-8.23,32.45-24.71,41.34a4.09,4.09,0,0,0-1.59,3.08c-.11,11.41,0,22.82-.08,34.22,0,9.25-5.58,16.15-14.53,18.11-9.95,2.19-19.65-1.87-23.21-10.06a21.64,21.64,0,0,1-1.65-8c-.19-9.76-.08-19.53-.08-29.29v-3.62H246.34v3.24q0,14.65,0,29.29c0,11.35-7.94,19-19.69,19.08s-19.76-7.7-19.78-19,0-22.61,0-33.92c0-1.55-.25-2.53-1.85-3.38-16.29-8.65-24.46-22.4-24.55-40.72-.16-34.74-.05-69.48,0-104.22,0-5.92,2.49-8.37,8.49-8.37q77.08,0,154.17,0c6.13,0,8.59,2.43,8.59,8.61C351.72,250.66,351.82,285.19,351.67,319.72Zm52.57-59.17c0,10.59,0,21.17,0,31.76,0,11.56-8.64,20.54-19.69,20.56s-19.76-9-19.77-20.49q0-32.22,0-64.44c0-11.55,8.68-20.41,19.84-20.36,11,0,19.58,8.87,19.62,20.29C404.27,238.76,404.24,249.65,404.24,260.55Z" transform="translate(-60.08 -58.91)"/><path class="cls-1" d="M391.16,228.43c-.09-4.66-2.8-7.66-6.7-7.63s-6.48,3-6.63,7.72c0,.41,0,.82,0,1.23q0,30.52,0,61a16.34,16.34,0,0,0,.48,4.26,6.47,6.47,0,0,0,12.39-.08,17.06,17.06,0,0,0,.45-4.26c0-10.17,0-20.35,0-30.52q0-8.63,0-17.26C391.19,238.08,391.25,233.25,391.16,228.43Z" transform="translate(-60.08 -58.91)"/></g></svg>