<svg xmlns="http://www.w3.org/2000/svg" viewBox="0 0 424 424"><defs><style>.cls-1{fill:#ff5257;}.cls-2{fill:#00ded5;}.cls-3{fill:#00ba65;}</style></defs><title>Android Controlled Robotics</title><g id="Layer_3" data-name="Layer 3"><path class="cls-1" d="M324.6,245.23c-3.88-16.1-13.13-27.73-28.74-33.74-13.49-5.19-27.45-5.66-41.51-2.91-12.72,2.48-23.56,8.25-31.14,19.15A48.4,48.4,0,0,0,215.3,247H324.78A14.23,14.23,0,0,0,324.6,245.23Z" transform="translate(-59 -59)"/><path class="cls-2" d="M351.5,268.5h-159v26.86c19.1-23.62,60.28-17.46,77.4,7.79h0c13.54-13.37,29.83-22.26,49.36-20.08,11.35,1.27,24.35,5.27,32.24,13.87Z" transform="translate(-59 -59)"/><rect class="cls-2" x="115.5" y="218.17" width="11" height="18.33"/><path class="cls-3" d="M59,59V483H483V59ZM203.55,249.94c2.2-15.35,8.26-28.72,20.24-39.19-3-3.85-5.74-7.44-8.49-11.06-2.53-3.33-2.38-6.55.35-8.6s5.89-1.27,8.42,2,5.06,6.71,7.72,10a2.7,2.7,0,0,0,2.4.75c23.61-10.76,47.27-10.11,71.44-.5,2.61-3.38,5.43-7,8.21-10.66,1.4-1.83,3.13-2.93,5.5-2.56,4.36.67,6.11,5.3,3.36,9-2.53,3.44-5.19,6.79-7.49,9.78,4,4.68,8.1,8.92,11.46,13.7,6.14,8.73,8.93,18.8,10.26,29.29a5.49,5.49,0,0,1-5.07,6.25,19.07,19.07,0,0,1-2.31,0H210.72C204.61,258.17,202.69,255.91,203.55,249.94ZM230,361a34,34,0,1,1,34-34A34,34,0,0,1,230,361Zm81,0a34,34,0,1,1,34-34A34,34,0,0,1,311,361Zm89.76-126.5a12.41,12.41,0,0,1-4.09-.7c-11.94,16.15-25.15,31.31-38.18,46.58v28.68a3.27,3.27,0,0,1-3.79,3.29,3.3,3.3,0,0,1-3.76-2.48c-3.84-14.14-21.9-19.29-34.85-20.06-16.6-1-29.88,7.07-41.33,18.38a3.19,3.19,0,0,1-2.38,1c-.76,2.58-4.76,3.9-6.44.87C251.67,284.21,205.64,276.56,193,308a3.78,3.78,0,0,1-.53.9v.17c0,4.51-7,4.38-7-.12V302.5H170.27c-3.13,0-4-3.37-2.77-5.43v-24.8c0-3,3-3.91,5.08-2.94H185.5v-3.73a3.62,3.62,0,0,1,.16-1.05,3.32,3.32,0,0,1,3.4-3.05h166a3.1,3.1,0,0,1,2.78,1.48l0,.06.08.14a3.4,3.4,0,0,1,.54,1.89v4.59c11.13-13,22.24-26,32.42-39.8a13.56,13.56,0,0,1-3.41-9.09,13.74,13.74,0,0,1,13.73-13.26c7.32,0,13.39,6.52,13.26,13.73A13.74,13.74,0,0,1,400.76,234.5Z" transform="translate(-59 -59)"/><path class="cls-2" d="M230.5,303A24.5,24.5,0,1,0,255,327.5,24.5,24.5,0,0,0,230.5,303Zm15.8,26.67H235.16l7.28,7.28c1.82,1.82-1.06,4.6-2.88,2.78l-7.89-7.89v10.54c0,2.58-4,2.5-4-.07v-9.8l-7.94,7.94c-1.82,1.82-4.6-1.06-2.78-2.88l7.89-7.89h-9.21c-2.58,0-2.5-4,.07-4h9.8l-7.28-7.28c-1.82-1.82,1.06-4.6,2.88-2.78l6.56,6.56V311.63c0-2.58,4-2.5,4,.07v11.14l7.94-7.94c1.82-1.82,4.6,1.06,2.78,2.88l-7.89,7.89h11.87C248.95,325.67,248.87,329.67,246.3,329.67Z" transform="translate(-59 -59)"/><path class="cls-2" d="M310.83,302.33a24.5,24.5,0,1,0,24.5,24.5A24.5,24.5,0,0,0,310.83,302.33ZM326.63,329H315.49l7.28,7.28c1.82,1.82-1.06,4.6-2.88,2.78L312,331.16V341.7c0,2.58-4,2.5-4-.07v-9.8l-7.94,7.94c-1.82,1.82-4.6-1.06-2.78-2.88l7.89-7.89H296c-2.58,0-2.5-4,.07-4h9.8l-7.28-7.28c-1.82-1.82,1.06-4.6,2.88-2.78l6.56,6.56V311c0-2.58,4-2.5,4,.07v11.14l7.94-7.94c1.82-1.82,4.6,1.06,2.78,2.88L314.83,325H326.7C329.28,325,329.2,329,326.63,329Z" transform="translate(-59 -59)"/><circle class="cls-1" cx="342" cy="162" r="9"/></g></svg>