<svg xmlns="http://www.w3.org/2000/svg" viewBox="0 0 433 433"><defs><style>.cls-1{fill:#ff65de;}.cls-2{fill:#00759c;}.cls-3{fill:#00a79b;}</style></defs><title>Augumented Reality</title><g id="Layer_3" data-name="Layer 3"><rect class="cls-1" x="296" y="168.5" width="59.83" height="31"/><path class="cls-2" d="M57,56V489H490V56ZM419.83,259.06c0,2.78-2.66,3.79-4.7,3.11a3.54,3.54,0,0,1-1.53.33H353V389a4,4,0,0,1,0,1.15V416a12,12,0,0,1-12,12H200a12,12,0,0,1-12-12V134a12,12,0,0,1,12-12H341a12,12,0,0,1,12,12v83.5h62.73a3.62,3.62,0,0,1,1.05.16,3.32,3.32,0,0,1,3.05,3.4Z" transform="translate(-57 -56)"/><path class="cls-3" d="M274.93,217.5H345V142a12,12,0,0,0-12-12H209a12,12,0,0,0-12,12V386.17H345V262.5H273.61a3.62,3.62,0,0,1-1.05-.16,3.32,3.32,0,0,1-3.05-3.4V220.27C269.5,217.14,272.87,216.25,274.93,217.5Zm50.9-21.77c0,4.51-7,4.38-7-.12V166.94c0-4.51,7-4.38,7,.12Zm-4.11-41.56c4.51,0,4.38,7-.12,7S317.23,154.17,321.73,154.17ZM303.06,175.5c4.51,0,4.38,7-.12,7S298.56,175.5,303.06,175.5Zm-3.56,12.11c0-4.51,7-4.38,7,.12v15.33c0,4.51-7,4.38-7-.12Zm-11,14.79c0,4.51-7,4.38-7-.12V162.94c0-4.51,7-4.38,7,.12Zm-4.11-54.89c4.51,0,4.38,7-.12,7S279.89,147.5,284.39,147.5Zm38,120c4.51,0,4.38,7-.12,7S317.89,267.5,322.39,267.5Zm-11.33,0c4.51,0,4.38,7-.12,7S306.56,267.5,311.06,267.5Zm-11.33,0c4.51,0,4.38,7-.12,7S295.23,267.5,299.73,267.5Z" transform="translate(-57 -56)"/><rect class="cls-1" x="219.5" y="168.5" width="68.5" height="31"/><path class="cls-3" d="M197,393.17V407a12,12,0,0,0,12,12H333a12,12,0,0,0,12-12V393.17Zm73.83,23.17c-12.9,0-12.51-20,.35-20S283.68,416.33,270.83,416.33Z" transform="translate(-57 -56)"/></g></svg>