<svg xmlns="http://www.w3.org/2000/svg" viewBox="0 0 403 396"><defs><style>.cls-1{fill:#ff596c;}</style></defs><title>AutoCAD</title><g id="Layer_3" data-name="Layer 3"><polygon class="cls-1" points="201.75 33.67 270.68 313.17 360.75 313.17 201.05 19.17 41.35 313.17 132.82 313.17 201.75 33.67"/><path class="cls-1" d="M107.21,406.5c29.55,10.07,58.85,20.89,87.62,33l8.15-33Z" transform="translate(-72.25 -85.83)"/><path class="cls-1" d="M353.15,439.43a3.56,3.56,0,0,1,1.65-1.16c28.08-9.77,56.59-18.66,83.35-31.78H345Z" transform="translate(-72.25 -85.83)"/><path class="cls-1" d="M72.25,85.83v396h403v-396ZM442.71,412.05c-27.62,13.7-57.13,22.89-86.18,33a3.13,3.13,0,0,1-2,.08L356,451H206.6a2.81,2.81,0,0,1-2.59,0l-.06,0H192l1.14-4.63c-29-12.26-58.63-23.18-88.46-33.34-3.23-1.1-2.87-5.23-.65-6.52H95.35l178.4-309,178.4,309h-8.92C444.85,408,445.22,410.81,442.71,412.05Z" transform="translate(-72.25 -85.83)"/><polygon class="cls-1" points="202.25 47.67 128.64 359.17 275.86 359.17 202.25 47.67"/></g></svg>