<svg xmlns="http://www.w3.org/2000/svg" viewBox="0 0 410.83 404.5"><defs><style>.cls-1{fill:#00b5b2;}</style></defs><title>Automobile</title><g id="Layer_3" data-name="Layer 3"><path class="cls-1" d="M363.3,383.22A18.61,18.61,0,0,0,382,364.37a18.89,18.89,0,1,0-18.68,18.86Z" transform="translate(-72.17 -56)"/><path class="cls-1" d="M483,460.5V56H72.17V460.5ZM354.35,116.1a2,2,0,0,1,1.88.34q14.36,14.22,28.62,28.55l32.95,33,21,21L430.85,207l-84-84.06C349.11,120.81,351.67,118.39,354.35,116.1Zm-14.15,14.8,83.42,83.4-7.55,7.54-83.7-83.77Zm-71,56.33c-3.7,3.53-7.54,7.12-11.29,10.8q-8.87,8.72-17.6,17.59a2.32,2.32,0,0,0-.16,2.25c11.93,12.14,23.93,24.2,36.16,36.52,3.06-3,5.89-5.76,8.68-8.55,9.11-9.1,18.16-18.26,27.33-27.3,1.46-1.44,1.27-2.14-.09-3.48-8.93-8.79-17.77-17.67-26.62-26.54-.54-.54-1-1.17-1.42-1.65l41.52-41.39,83.15,83.22L367,270.37c-3.32-3.45-6.86-7.2-10.47-10.87-5.88-6-11.83-11.88-17.74-17.82-.82-.82-1.5-1.29-2.58-.22-12,12-24.11,24-36.57,36.46,4.82,4.69,9.49,9.15,14.06,13.7,13.91,13.84,27.76,27.73,41.71,41.52a4.62,4.62,0,0,0,3.32,1.14c16.47-1.81,29.4,6.69,34.16,22.58,3,10.15-1.18,23.39-9.3,30.43-7.59,6.59-16.37,9.19-26,7.41a30.07,30.07,0,0,1-24.93-27.2c-.21-2.56.2-5.17.14-7.76a4.65,4.65,0,0,0-.93-2.95q-27.15-27.33-54.43-54.53c-.24-.24-.53-.43-1-.82-.67.62-1.36,1.23-2,1.88q-26.51,26.5-53,53a4,4,0,0,0-1.31,3.86,30.63,30.63,0,0,1-60.19,11.18c-4.54-19.93,10.62-38.35,30.82-37.07,4.52.29,7.18-1.27,10.13-4.27,16.86-17.12,33.91-34,50.9-51,.36-.36.68-.74,1.26-1.38-6.52-6.44-13-12.81-19.41-19.2-5.4-5.36-10.84-10.69-16.1-16.18-1.67-1.74-2.5-1.43-4.05.15-8.78,8.94-17.68,17.75-26.56,26.6-.48.47-1,.87-1.47,1.23l-41.22-41.28,83.34-83.27Zm-48.33-49-83.94,83.87-7.33-7.77L213.11,131ZM114,198.69c2.57-2.38,5.23-4.68,7.71-7.15Q147.28,166,172.8,140.45c7.87-7.88,15.77-15.73,23.57-23.68,1.23-1.25,1.87-1.25,3.09,0,2.25,2.24,4.7,4.27,7,6.31L122.11,207.2l-8.11-8Z" transform="translate(-72.17 -56)"/><path class="cls-1" d="M189.74,345.52A18.82,18.82,0,0,0,171,364.6a18.88,18.88,0,0,0,37.75-.12A19,19,0,0,0,189.74,345.52Z" transform="translate(-72.17 -56)"/></g></svg>