<svg xmlns="http://www.w3.org/2000/svg" viewBox="0 0 408 408"><defs><style>.cls-1{fill:#ff5257;}</style></defs><title>Big Data</title><g id="Layer_3" data-name="Layer 3"><path class="cls-1" d="M72.75,58.75v408h408v-408Zm204,323.5a119.5,119.5,0,1,1,119.5-119.5A119.5,119.5,0,0,1,276.75,382.25Z" transform="translate(-72.75 -58.75)"/><path class="cls-1" d="M276,158A105,105,0,1,0,381,263,105,105,0,0,0,276,158Zm-74.67,93.72c0,3.87-6,3.75-6-.1V234.95c0-3.87,6-3.75,6,.1ZM328,235.61c0-3.87,6-3.75,6,.1v15.33c0,3.87-6,3.75-6-.1Zm-108.81-4.28c14.19,0,13.76,22-.38,22S205,231.34,219.19,231.34Zm.95,84.66c-14.19,0-13.76-22,.38-22S234.28,316,220.14,316Zm15.19-65.05V234.28c0-3.87,6-3.75,6,.1v16.67C241.33,254.92,235.33,254.8,235.33,250.95ZM246,312.39c0,3.87-6,3.75-6-.1V296.95c0-3.87,6-3.75,6,.1Zm8.67-62.1V235.61c0-3.87,6-3.75,6,.1v14.67C260.67,254.26,254.67,254.14,254.67,250.28Zm8,62.1c0,3.87-6,3.75-6-.1V296.95c0-3.87,6-3.75,6,.1Zm15.19-79.05c14.19,0,13.76,22-.38,22S263.72,233.34,277.86,233.34Zm.28,82.66c-14.19,0-13.76-22,.38-22S292.28,316,278.14,316ZM296,235.61c0-3.87,6-3.75,6,.1v14c0,3.87-6,3.75-6-.1Zm6.67,76.77c0,3.87-6,3.75-6-.1v-14c0-3.87,6-3.75,6,.1ZM304,203.05c0,3.87-6,3.75-6-.1V188.28c0-3.87,6-3.75,6,.1Zm12.67,108.67a3.13,3.13,0,0,1-.13.86,2.86,2.86,0,0,1-2.93,2.75,2.76,2.76,0,0,1-2.84-2.92,3.21,3.21,0,0,1-.11-.8V298.95c0-3.87,6-3.75,6,.1Zm2-62c0,3.87-6,3.75-6-.1V234.95c0-3.87,6-3.75,6,.1Zm0-46c0,3.87-6,3.75-6-.1V188.28c0-3.87,6-3.75,6,.1Zm13.48,112.95c-14.19,0-13.76-22,.38-22S346.28,316.66,332.14,316.66ZM348,251.05c0,3.87-6,3.75-6-.1V236.28c0-3.87,6-3.75,6,.1Z" transform="translate(-72.75 -58.75)"/></g></svg>