<svg xmlns="http://www.w3.org/2000/svg" viewBox="0 0 414 414"><defs><style>.cls-1{fill:#006255;}.cls-2{fill:#00b5b2;}.cls-3{fill:#f70;}.cls-4{fill:#ff444a;}.cls-5{fill:#905;}</style></defs><title>Embedded Systems</title><g id="Layer_3" data-name="Layer 3"><path class="cls-1" d="M66.25,67.5v414h414V67.5ZM428.77,372a11.55,11.55,0,0,1-11.42-7.67h-68.6V407.5h-151V303H146.33v46.27c10.56,5.2,8.26,24.73-6.23,24.73s-16-19-5.77-24.51V296.9a5.43,5.43,0,0,1,4.89-5.62,6.4,6.4,0,0,1,1.88-.27h56.65V229.67H126.17a12,12,0,0,1-11.39,7c-16.77,0-16.26-26,.45-26,5.71,0,9.42,3,11.16,7h71.36v-32H160.83a12,12,0,0,1-11.39,7c-16.77,0-16.26-26,.45-26,5.71,0,9.42,3,11.16,7h36.7V141.5h151v40.83h59.66a12.15,12.15,0,0,1,12.15-9c16.77,0,16.26,26-.45,26a11.62,11.62,0,0,1-10.06-5H348.75V225h55a5.33,5.33,0,0,1,4.9,2.73,5.83,5.83,0,0,1,1,3.38v36.83c10.56,5.2,8.26,24.73-6.23,24.73s-16-19-5.77-24.51V237H348.75V352.33h69.43a12,12,0,0,1,11-6.33C446,346,445.49,372,428.77,372Z" transform="translate(-66.25 -67.5)"/><path class="cls-2" d="M321.61,222.5H302v32.33h6.83v-6.64c-7.39-3.08-6-16.36,3.65-16.36s10.53,13,3.35,16.24v10.32a3.1,3.1,0,0,1-1.48,2.78l-.06,0-.14.08a3.4,3.4,0,0,1-1.89.54H302v61h9.06a3.11,3.11,0,0,1,2.82,1.54,3.24,3.24,0,0,1,1.28,2.69v34.08c7.39,3.08,6,16.36-3.65,16.36s-10.53-13-3.35-16.24V329.83H302V356H279.83v28H322V222.46A3.77,3.77,0,0,1,321.61,222.5Z" transform="translate(-66.25 -67.5)"/><rect class="cls-3" x="155.75" y="274.33" width="21" height="7"/><polygon class="cls-3" points="176.75 288.5 176.75 288.33 155.75 288.33 155.75 316.5 206.58 316.5 206.58 288.5 176.75 288.5"/><path class="cls-4" d="M222,165V334.83h21V265.17h-6.5v22.64c7.39,3.08,6,16.36-3.65,16.36s-10.53-13-3.35-16.24v-27c0-3.13,3.37-4,5.43-2.77H243V222.5h-8.73a3.62,3.62,0,0,1-1.05-.16,3.32,3.32,0,0,1-3.05-3.4V185.28c-8.85-2-7.89-16.78,2.31-16.78,8.93,0,10.36,11.27,4.68,15.46V215.5H243V194h59v21.5h19.73l.27,0V165Z" transform="translate(-66.25 -67.5)"/><rect class="cls-5" x="184.75" y="136.5" width="42" height="143"/></g></svg>