<svg id="Layer_1" data-name="Layer 1" xmlns="http://www.w3.org/2000/svg" viewBox="0 0 387.32 395.33"><defs><style>.cls-1{fill:#ff6a77;}.cls-2{fill:#ffc652;}</style></defs><title>EthiHack</title><path class="cls-1" d="M387.46,295.06V270.89H168v68.74h75.11V329.17a4.72,4.72,0,0,1,0-4.46V309.84H211a5.57,5.57,0,0,1-4.86,2.51c-7.76,0-7.52-12,.21-12a5.66,5.66,0,0,1,3.5,1.1h37.5a3.84,3.84,0,0,1,4,3.81,4.46,4.46,0,0,1,.17,1.18v16.24h49.64a4.34,4.34,0,0,1,1.31.21,4,4,0,0,1,3.53,4.07v35.18c3.14,3.29,1.63,10.39-4.31,10.39s-7.16-6.87-4.1-10.22V331.07H251.5v12.14a3.76,3.76,0,0,1-3,3.84,4,4,0,0,1-2.74,1H221.08V370.6c3.14,3.29,1.63,10.39-4.31,10.39s-7.16-6.87-4.1-10.22V348.05H168v51.76h65.2V360.75c0-5.43,8.42-5.27,8.42.15v38.91h58.09V387.67h-34.2a5.57,5.57,0,0,1-4.86,2.51c-5.35,0-6.9-5.71-4.81-9.26V365c-2.13-3.53-.41-9.46,5-9.46,6.27,0,7.32,7.87,3.4,10.87v12.79l.11.07h40.33c3.68,0,4.78,3.87,3.43,6.36v14.19H340V338.15H317.27a3.73,3.73,0,0,1-3.34-1.78l0-.07-.1-.17a4.09,4.09,0,0,1-.65-2.27V300.1c-3.14-3.29-1.63-10.39,4.31-10.39s7.16,6.87,4.1,10.22v29.79h42a5.57,5.57,0,0,1,4.86-2.51c7.76,0,7.52,12-.21,12a5.66,5.66,0,0,1-3.5-1.1H348.44v61.66h14.95c0-.05,0-.09,0-.15V360.15c-4-2.9-2.74-11,3.61-11,5.37,0,6.91,5.76,4.78,9.31,0,.11,0,.2,0,.31v41h15.67V303.48H344.9v8.4c3.14,3.29,1.63,10.39-4.31,10.39s-7.16-6.87-4.1-10.22V284.45c-4-2.9-2.74-11,3.61-11,5.37,0,6.91,5.76,4.78,9.31,0,.11,0,.2,0,.31v12ZM195.61,365.74V392c0,5.43-8.42,5.27-8.42-.15v-26c-3.14-3.29-1.63-10.39,4.31-10.39S198.66,362.38,195.61,365.74Zm106.77-72.49a5.44,5.44,0,0,1-4.26-1.8H273.44v14.28c2.13,3.53.41,9.46-5,9.46-6.27,0-7.32-7.87-3.4-10.87V291.45H192.07v21.14c3.14,3.29,1.63,10.39-4.31,10.39s-7.16-6.87-4.1-10.22V287.17a3.84,3.84,0,0,1,3.81-4,4.46,4.46,0,0,1,1.18-.17H298.27a5.64,5.64,0,0,1,4.31-1.8C310.34,281.23,310.11,293.25,302.38,293.25Z" transform="translate(-83 -64.67)"/><path class="cls-2" d="M470.31,460V64.67H83V460ZM151.14,261.62c0-6.58,6.18-9,11.05-7.56h46.29c.5-27.45-.43-54.93.8-82.37.87-19.39,3.35-39.64,16.61-54.84C238,102.93,258.22,96.46,276.2,96.23c18.13-.23,38.76,6.19,51.19,20,13.15,14.59,13.24,34.5,13.22,53,0,10.86-16.85,10.53-16.84-.29,0-16.9.78-36-14.95-46.5-23.67-15.79-65.32-12.39-77.21,16.75-6.83,16.74-5.86,36.27-6.07,54-.25,20.29.14,40.59-.22,60.88H397.44c7.37,0,9.57,7.74,6.86,12.72V405.25c1.53,4.92-1.14,11.4-7.86,11.4h-237a7.48,7.48,0,0,1-6.88-3.83,8.19,8.19,0,0,1-1.4-4.74Z" transform="translate(-83 -64.67)"/></svg>