<svg xmlns="http://www.w3.org/2000/svg" viewBox="0 0 395.5 376.83"><defs><style>.cls-1{fill:#44dbff;}.cls-2{fill:#007756;}.cls-3{fill:#d5c800;}.cls-4{fill:#5bff8a;}</style></defs><title>IoT</title><g id="Layer_3" data-name="Layer 3"><polygon class="cls-1" points="91.89 90 60.72 144 123.07 144 91.89 90"/><path class="cls-2" d="M80.5,66V442.83H476V66ZM208,166.61c36.77-26.28,95.16-32,132.87-4.6,3.62,2.63,0,8.64-3.64,6-35.88-26.07-90.88-20.23-125.8,4.73C207.71,175.34,204.33,169.2,208,166.61ZM172,143l41.57,72H130.43Zm54.51,209.66a132.71,132.71,0,0,1-43.42-49.32c-10.24-20.09-15.91-42.1-20.15-64.13-.85-4.42,5.93-6.16,6.78-1.74,4,21,9.27,42,18.85,61.2a125.88,125.88,0,0,0,41.58,48C233.85,349.22,230.24,355.21,226.51,352.66Zm85.09,26.51H260.94a3.1,3.1,0,0,1-2.78-1.48l0-.06-.08-.14a3.4,3.4,0,0,1-.54-1.89V326.27c0-3.13,3.37-4,5.43-2.77h46c2.05-1.27,5.53-.28,5.53,2.89v47.24C315.77,375.68,314.78,379.17,311.61,379.17Zm63.66-70.39c-4.45,9.3-10.4,17.41-16.61,25.59-5.28,7-11,14.8-19.45,18-4.21,1.62-5.89-5.19-1.74-6.78,7.58-2.91,13.12-12.08,17.75-18.28,5.63-7.53,10.79-15.06,14.75-23.64,8.86-19.21,12.87-40.49,14.87-61.42.43-4.46,7.43-4.36,7,.12C389.65,265.15,385.19,288,375.26,308.78ZM385.5,220A37.5,37.5,0,1,1,423,182.5,37.5,37.5,0,0,1,385.5,220Z" transform="translate(-80.5 -66)"/><rect class="cls-3" x="184" y="264.5" width="43" height="41.67"/><circle class="cls-4" cx="305.5" cy="117" r="32"/></g></svg>