<svg xmlns="http://www.w3.org/2000/svg" viewBox="0 0 412 412"><defs><style>.cls-1{fill:#905;}.cls-2{fill:#00fabc;}</style></defs><title>quadcopter</title><g id="Layer_3" data-name="Layer 3"><path class="cls-1" d="M66,66V478H478V66ZM360.89,96.61l37.3,39.2-4.68,4.45L404.64,152l4.68-4.45,37.3,39.2-17,16.14-37.3-39.2L397,159.2,385.9,147.5,381.22,152l-37.3-39.2ZM131.35,142.82l4.45,4.68,11.7-11.13-4.45-4.68,39.2-37.3,16.14,17-39.2,37.3L154.74,144,143,155.1l4.45,4.68-39.2,37.3-16.14-17Zm50.3,302-37.3-39.2L149,401.2,137.9,389.5,133.22,394l-37.3-39.2,17-16.14,37.3,39.2-4.68,4.45L156.64,394l4.68-4.45,37.3,39.2Zm-5-62a12,12,0,1,1-17-17l66.75-66.75A50.46,50.46,0,0,1,229.53,245l-72.86-72.86a12,12,0,0,1,17-17l74.21,74.21a50.46,50.46,0,0,1,47.91,1.4l71.61-71.61a12,12,0,0,1,17,17l-71.25,71.25a50.5,50.5,0,0,1,1.86,51.1l72.39,72.38a12,12,0,1,1-17,17L298.83,316.3a50.49,50.49,0,0,1-56.06.39ZM411.2,401.65,406.74,397,395,408.1l4.45,4.68-39.2,37.3-16.14-17,39.2-37.3,4.45,4.68,11.7-11.13-4.45-4.68,39.2-37.3,16.14,17Z" transform="translate(-66 -66)"/><circle class="cls-2" cx="204.5" cy="208.5" r="41.5"/></g></svg>