<svg xmlns="http://www.w3.org/2000/svg" viewBox="0 0 387 370.45"><defs><style>.cls-1{fill:#6effb0;}.cls-2{fill:none;stroke:#ff8812;stroke-miterlimit:10;stroke-width:3px;}.cls-3{fill:#ff8812;}</style></defs><title>Sixth Sense Robotics</title><g id="Layer_3" data-name="Layer 3"><path class="cls-1" d="M431.4,92.87c-117.46-.72-234.93,0-352.4.11V460h77c0-.17,0-.33,0-.5v-120a16.5,16.5,0,0,1,33,0V363h8.17a20.61,20.61,0,0,1-.17-2.5v-146a20.5,20.5,0,0,1,41,0v146a20.61,20.61,0,0,1-.17,2.5h7.42a24.69,24.69,0,0,1-.25-3.5v-170a24.5,24.5,0,0,1,49,0v170a24.69,24.69,0,0,1-.25,3.5H301V211a17,17,0,0,1,34,0V363h7V270.5a13.5,13.5,0,0,1,27,0V460h97V93.13Q448.7,93,431.4,92.87Z" transform="translate(-79 -92.55)"/><polyline class="cls-2" points="84 367.45 280 367.45 280 329.45 230 329.45 230 305.45 199 305.45 199 281.45"/><polyline class="cls-2" points="229.5 304.95 276.5 304.95 276.5 230.95 284.5 230.95 284.5 176.95"/><polyline class="cls-2" points="271.5 185.95 271.5 198.95 284.5 198.95 284.5 215.95 267.5 215.95 267.5 204.95 275.5 204.95"/><polyline class="cls-2" points="275.5 230.95 270.5 230.95 270.5 221.95"/><polyline class="cls-2" points="83.5 243.95 83.5 267.95 101.5 267.95 101.5 243.95"/><polyline class="cls-2" points="88.5 243.95 88.5 267.95 96.5 267.95 96.5 237.95"/><path class="cls-2" d="M171.5,360.5v27h29v26h-23v22h37V460H250V426.5H229.5v-29h20v13h11s-1-33,0-32-45,0-45,0v-149h-14v-19" transform="translate(-79 -92.55)"/><polyline class="cls-2" points="137.5 136.95 152.5 136.95 152.5 113.95"/><polyline class="cls-2" points="173.5 106.95 173.5 260.95 181.5 260.95 181.5 106.95 193.5 106.95 193.5 117.95 186.5 117.95 186.5 124.95 193.5 124.95 193.5 133.95 186.5 133.95 186.5 162.95 193.5 162.95 193.5 230.95"/><polyline class="cls-2" points="204.5 358.95 204.5 320.95 215.5 320.95 215.5 343.95 261.5 343.95"/><polyline class="cls-2" points="218.5 280.95 218.5 296.95 244.5 296.95 244.5 117.95 232.5 117.95 232.5 263.95 250.5 263.95 250.5 157.95 226.5 157.95 226.5 230.95 237.5 230.95 237.5 106.95"/><path class="cls-3" d="M161.5,333.5c-3.86,0-3.87,6,0,6S165.37,333.5,161.5,333.5Z" transform="translate(-79 -92.55)"/><path class="cls-3" d="M167.5,332c-3.86,0-3.87,6,0,6S171.37,332,167.5,332Z" transform="translate(-79 -92.55)"/><path class="cls-3" d="M175.5,327c-3.86,0-3.87,6,0,6S179.37,327,175.5,327Z" transform="translate(-79 -92.55)"/><path class="cls-3" d="M180.5,333.5c-3.86,0-3.87,6,0,6S184.37,333.5,180.5,333.5Z" transform="translate(-79 -92.55)"/><path class="cls-3" d="M196.5,422.5c-3.86,0-3.87,6,0,6S200.37,422.5,196.5,422.5Z" transform="translate(-79 -92.55)"/><path class="cls-3" d="M200.5,384.5c-3.86,0-3.87,6,0,6S204.37,384.5,200.5,384.5Z" transform="translate(-79 -92.55)"/><path class="cls-3" d="M287,268c-3.86,0-3.87,6,0,6S290.87,268,287,268Z" transform="translate(-79 -92.55)"/><path class="cls-3" d="M287,247.38c-3.86,0-3.87,6,0,6S290.87,247.38,287,247.38Z" transform="translate(-79 -92.55)"/><path class="cls-3" d="M287,226.75c-3.86,0-3.87,6,0,6S290.87,226.75,287,226.75Z" transform="translate(-79 -92.55)"/><path class="cls-3" d="M287,206.13c-3.86,0-3.87,6,0,6S290.87,206.13,287,206.13Z" transform="translate(-79 -92.55)"/><path class="cls-3" d="M287,185.5c-3.86,0-3.87,6,0,6S290.87,185.5,287,185.5Z" transform="translate(-79 -92.55)"/><path class="cls-3" d="M229,356c-3.86,0-3.87,6,0,6S232.87,356,229,356Z" transform="translate(-79 -92.55)"/><path class="cls-3" d="M229,335.38c-3.86,0-3.87,6,0,6S232.87,335.38,229,335.38Z" transform="translate(-79 -92.55)"/><path class="cls-3" d="M229,314.75c-3.86,0-3.87,6,0,6S232.87,314.75,229,314.75Z" transform="translate(-79 -92.55)"/><path class="cls-3" d="M229,294.13c-3.86,0-3.87,6,0,6S232.87,294.13,229,294.13Z" transform="translate(-79 -92.55)"/><path class="cls-3" d="M229,273.5c-3.86,0-3.87,6,0,6S232.87,273.5,229,273.5Z" transform="translate(-79 -92.55)"/><path class="cls-3" d="M202,209c-3.86,0-3.87,6,0,6S205.87,209,202,209Z" transform="translate(-79 -92.55)"/><path class="cls-3" d="M230.5,203.5c-3.86,0-3.87,6,0,6S234.37,203.5,230.5,203.5Z" transform="translate(-79 -92.55)"/><path class="cls-3" d="M279,172c-3.86,0-3.87,6,0,6S282.87,172,279,172Z" transform="translate(-79 -92.55)"/><path class="cls-3" d="M252,198c-3.86,0-3.87,6,0,6S255.87,198,252,198Z" transform="translate(-79 -92.55)"/><path class="cls-3" d="M272,319.5c-3.86,0-3.87,6,0,6S275.87,319.5,272,319.5Z" transform="translate(-79 -92.55)"/><path class="cls-3" d="M229.5,394c-3.86,0-3.87,6,0,6S233.37,394,229.5,394Z" transform="translate(-79 -92.55)"/><path class="cls-3" d="M259.5,375.5c-3.86,0-3.87,6,0,6S263.37,375.5,259.5,375.5Z" transform="translate(-79 -92.55)"/><path class="cls-3" d="M278,370.5c-3.86,0-3.87,6,0,6S281.87,370.5,278,370.5Z" transform="translate(-79 -92.55)"/><path class="cls-3" d="M297.5,370c-3.86,0-3.87,6,0,6S301.37,370,297.5,370Z" transform="translate(-79 -92.55)"/><path class="cls-3" d="M284,448.5c-3.86,0-3.87,6,0,6S287.87,448.5,284,448.5Z" transform="translate(-79 -92.55)"/><path class="cls-3" d="M339.5,433.5c-3.86,0-3.87,6,0,6S343.37,433.5,339.5,433.5Z" transform="translate(-79 -92.55)"/><path class="cls-3" d="M355,295c-3.86,0-3.87,6,0,6S358.87,295,355,295Z" transform="translate(-79 -92.55)"/><path class="cls-3" d="M350,275.5c-3.86,0-3.87,6,0,6S353.87,275.5,350,275.5Z" transform="translate(-79 -92.55)"/><path class="cls-3" d="M363,269c-3.86,0-3.87,6,0,6S366.87,269,363,269Z" transform="translate(-79 -92.55)"/><path class="cls-3" d="M350.5,312c-3.86,0-3.87,6,0,6S354.37,312,350.5,312Z" transform="translate(-79 -92.55)"/><path class="cls-3" d="M316.5,196.5c-3.86,0-3.87,6,0,6S320.37,196.5,316.5,196.5Z" transform="translate(-79 -92.55)"/><path class="cls-3" d="M330,247c-3.86,0-3.87,6,0,6S333.87,247,330,247Z" transform="translate(-79 -92.55)"/><path class="cls-3" d="M312,352c-3.86,0-3.87,6,0,6S315.87,352,312,352Z" transform="translate(-79 -92.55)"/><path class="cls-3" d="M324.5,385.5c-3.86,0-3.87,6,0,6S328.37,385.5,324.5,385.5Z" transform="translate(-79 -92.55)"/><path class="cls-3" d="M162.5,457c-3.86,0-3.87,6,0,6S166.37,457,162.5,457Z" transform="translate(-79 -92.55)"/><line class="cls-2" x1="126.5" y1="151.45" x2="126.5" y2="275.45"/><path class="cls-3" d="M205.5,239c-3.86,0-3.87,6,0,6S209.37,239,205.5,239Z" transform="translate(-79 -92.55)"/><path class="cls-3" d="M205,364c-3.86,0-3.87,6,0,6S208.87,364,205,364Z" transform="translate(-79 -92.55)"/><polyline class="cls-2" points="190.5 267.95 190.5 252.95 207.5 252.95 207.5 195.95"/><path class="cls-3" d="M269,357.5c-3.86,0-3.87,6,0,6S272.87,357.5,269,357.5Z" transform="translate(-79 -92.55)"/></g></svg>