<?xml version="1.0" encoding="utf-8"?>
<!-- Generator: Adobe Illustrator 21.0.2, SVG Export Plug-In . SVG Version: 6.00 Build 0)  -->
<svg version="1.1" id="Capa_1" xmlns="http://www.w3.org/2000/svg" xmlns:xlink="http://www.w3.org/1999/xlink" x="0px" y="0px"
	 viewBox="0 0 512 512" style="enable-background:new 0 0 512 512;" xml:space="preserve">
<style type="text/css">
	.st0{fill:#007F79;}
</style>
<g>
	<path class="st0" d="M256,194.6c-33.8,0-61.4,27.5-61.4,61.4s27.5,61.4,61.4,61.4s61.4-27.5,61.4-61.4S289.8,194.6,256,194.6z
		 M256,300.8c-24.7,0-44.8-20.1-44.8-44.8s20.1-44.8,44.8-44.8s44.8,20.1,44.8,44.8S280.7,300.8,256,300.8z"/>
	<path class="st0" d="M256,230c-4.6,0-8.3,3.7-8.3,8.3s3.7,8.3,8.3,8.3c5.2,0,9.4,4.2,9.4,9.4c0,4.6,3.7,8.3,8.3,8.3
		s8.3-3.7,8.3-8.3C282,241.7,270.3,230,256,230z"/>
	<path class="st0" d="M512,256c0-27.4-27.7-52.4-78.1-70.4c-1.4-0.5-2.9-1-4.4-1.5c0.7-1.4,1.4-2.8,2-4.2
		c22.9-48.3,24.8-85.6,5.4-105c-19.4-19.4-56.6-17.4-105,5.4c-1.4,0.7-2.8,1.3-4.2,2c-0.5-1.5-1-2.9-1.5-4.4
		C308.4,27.7,283.4,0,256,0s-52.4,27.7-70.4,78.1c-0.5,1.4-1,2.9-1.5,4.4c-1.4-0.7-2.8-1.4-4.2-2C131.6,57.5,94.4,55.6,75,75
		s-17.4,56.6,5.4,105c0.7,1.4,1.3,2.8,2,4.2c-1.5,0.5-2.9,1-4.4,1.5C27.7,203.6,0,228.6,0,256s27.7,52.4,78.1,70.4
		c1.4,0.5,2.9,1,4.4,1.5c-0.7,1.4-1.4,2.8-2,4.2c-22.9,48.3-24.8,85.6-5.4,105c8.8,8.8,21.4,13.2,37.1,13.2
		c18.6,0,41.6-6.2,67.9-18.7c1.4-0.7,2.8-1.3,4.2-2c0.5,1.5,1,2.9,1.5,4.4c18,50.3,43,78.1,70.4,78.1s52.4-27.7,70.4-78.1
		c0.5-1.4,1-2.9,1.5-4.4c1.4,0.7,2.8,1.4,4.2,2c26.3,12.4,49.3,18.7,67.9,18.7c15.6,0,28.2-4.4,37.1-13.2
		c19.4-19.4,17.4-56.6-5.4-105c-0.7-1.4-1.3-2.8-2-4.2c1.5-0.5,2.9-1,4.4-1.5C484.3,308.4,512,283.4,512,256z M339.2,95.4
		c24.1-11.4,44.9-17.2,60.7-17.2c11.1,0,19.7,2.8,25.4,8.5c13.8,13.8,10.7,45.2-8.7,86.1c-1,2.1-2,4.2-3.1,6.3
		c-20.3-5.9-42.8-10.5-66.8-13.8c-3.3-24-8-46.4-13.8-66.8C335,97.4,337.1,96.4,339.2,95.4z M336.2,256c0,11.1-0.3,22.1-0.8,32.9
		c-7.3,8-14.9,16-22.7,23.8c-7.8,7.8-15.8,15.4-23.8,22.7c-10.8,0.5-21.8,0.8-32.9,0.8c-11.1,0-22.1-0.3-32.9-0.8
		c-8-7.3-16-14.9-23.8-22.7c-7.8-7.8-15.4-15.8-22.7-23.8c-0.5-10.8-0.8-21.8-0.8-32.9c0-11.1,0.3-22.1,0.8-32.9
		c7.3-8,14.9-16,22.7-23.8c7.8-7.8,15.8-15.4,23.8-22.7c10.8-0.5,21.8-0.8,32.9-0.8c11.1,0,22.1,0.3,32.9,0.8
		c8,7.3,16,14.9,23.8,22.7c7.8,7.8,15.4,15.8,22.7,23.8C335.9,233.9,336.2,244.9,336.2,256z M324.4,187.6c-3.1-3.1-6.2-6.2-9.4-9.2
		c5.7,0.5,11.3,1.1,16.9,1.7c0.6,5.6,1.2,11.2,1.7,16.9C330.6,193.8,327.5,190.7,324.4,187.6z M295.6,160.4
		c-8.6-7.7-17.4-15.1-26.1-22.1c16.4-12.2,32.6-22.9,48.4-31.8c4.9,17.4,8.8,36.5,11.7,56.7C318.6,161.9,307.2,161,295.6,160.4z
		 M269.1,159.4c-4.4-0.1-8.7-0.1-13.1-0.1s-8.8,0-13.1,0.1c4.4-3.7,8.8-7.2,13.1-10.7C260.4,152.1,264.8,155.7,269.1,159.4z
		 M216.4,160.4c-11.6,0.7-23,1.6-34.1,2.8c3-20.2,6.9-39.3,11.7-56.7c15.8,8.9,32,19.6,48.4,31.8C233.7,145.2,225,152.6,216.4,160.4
		z M197,178.4c-3.1,3-6.3,6.1-9.4,9.2c-3.1,3.1-6.2,6.2-9.2,9.4c0.5-5.7,1.1-11.3,1.7-16.9C185.6,179.4,191.3,178.9,197,178.4z
		 M160.4,216.4c-7.7,8.6-15.1,17.4-22.1,26.1c-12.2-16.4-22.9-32.6-31.8-48.4c17.4-4.9,36.5-8.8,56.7-11.7
		C161.9,193.4,161,204.8,160.4,216.4z M159.4,242.9c-0.1,4.4-0.1,8.7-0.1,13.1s0,8.8,0.1,13.1c-3.7-4.4-7.2-8.8-10.7-13.1
		C152.1,251.6,155.7,247.2,159.4,242.9z M160.4,295.6c0.7,11.6,1.6,23,2.8,34.1c-20.2-3-39.3-6.9-56.7-11.7
		c8.9-15.8,19.6-32,31.8-48.4C145.2,278.3,152.6,287,160.4,295.6z M178.4,315c3,3.1,6.1,6.3,9.2,9.4c3.1,3.1,6.2,6.2,9.4,9.2
		c-5.7-0.5-11.3-1.1-16.9-1.7C179.4,326.4,178.9,320.7,178.4,315z M216.4,351.6c8.6,7.7,17.4,15.1,26.1,22.1
		c-16.4,12.2-32.6,22.9-48.4,31.8c-4.9-17.4-8.8-36.5-11.7-56.7C193.4,350.1,204.8,351,216.4,351.6z M242.9,352.6
		c4.4,0.1,8.7,0.1,13.1,0.1s8.8,0,13.1-0.1c-4.4,3.7-8.8,7.2-13.1,10.7C251.6,359.9,247.2,356.3,242.9,352.6z M295.6,351.6
		c11.6-0.7,23-1.6,34.1-2.8c-3,20.2-6.9,39.3-11.7,56.7c-15.8-8.9-32-19.6-48.4-31.8C278.3,366.8,287,359.4,295.6,351.6z M315,333.6
		c3.1-3,6.3-6.1,9.4-9.2c3.1-3.1,6.2-6.2,9.2-9.4c-0.5,5.7-1.1,11.3-1.7,16.9C326.4,332.6,320.7,333.1,315,333.6z M351.6,295.6
		c7.7-8.6,15.1-17.4,22.1-26.1c12.2,16.4,22.9,32.6,31.8,48.4c-17.4,4.9-36.5,8.8-56.7,11.7C350.1,318.6,351,307.2,351.6,295.6z
		 M352.6,269.1c0.1-4.4,0.1-8.7,0.1-13.1s0-8.8-0.1-13.1c3.7,4.4,7.2,8.8,10.7,13.1C359.9,260.4,356.3,264.8,352.6,269.1z
		 M351.6,216.4c-0.7-11.6-1.6-23-2.8-34.1c20.2,3,39.3,6.9,56.7,11.7c-8.9,15.8-19.6,32-31.8,48.4
		C366.8,233.7,359.4,225,351.6,216.4z M201.3,83.6c15.2-42.6,35.2-67,54.7-67s39.5,24.4,54.7,67c0.8,2.2,1.5,4.4,2.3,6.6
		c-18.5,10.2-37.7,22.9-57,37.5c-19.3-14.6-38.5-27.2-57-37.5C199.7,88,200.5,85.8,201.3,83.6z M95.4,172.8
		c-19.4-40.9-22.5-72.3-8.7-86.1c5.7-5.7,14.3-8.5,25.4-8.5c15.8,0,36.6,5.8,60.7,17.2c2.1,1,4.2,2,6.3,3.1
		c-5.9,20.3-10.5,42.8-13.8,66.8c-24,3.3-46.4,8-66.8,13.8C97.4,177,96.4,174.9,95.4,172.8z M83.6,310.7c-42.6-15.2-67-35.2-67-54.7
		s24.4-39.5,67-54.7c2.2-0.8,4.4-1.5,6.6-2.3c10.2,18.5,22.9,37.7,37.5,57c-14.6,19.3-27.2,38.5-37.5,57
		C88,312.3,85.8,311.5,83.6,310.7z M172.8,416.6c-40.9,19.4-72.3,22.5-86.1,8.7c-13.8-13.8-10.7-45.2,8.7-86.1c1-2.1,2-4.2,3.1-6.3
		c20.3,5.9,42.8,10.5,66.8,13.8c3.3,24,8,46.4,13.8,66.8C177,414.6,174.9,415.6,172.8,416.6z M310.7,428.4
		c-15.2,42.6-35.2,67-54.7,67s-39.5-24.4-54.7-67c-0.8-2.2-1.5-4.4-2.3-6.6c18.5-10.2,37.7-22.9,57-37.5
		c19.3,14.6,38.5,27.2,57,37.5C312.3,424,311.5,426.2,310.7,428.4z M416.6,339.2c19.4,40.9,22.5,72.3,8.7,86.1
		c-13.8,13.8-45.2,10.7-86.1-8.7c-2.1-1-4.2-2-6.3-3.1c5.9-20.3,10.5-42.8,13.8-66.8c24-3.3,46.4-8,66.8-13.8
		C414.6,335,415.6,337.1,416.6,339.2z M384.3,256c14.6-19.3,27.2-38.5,37.5-57c2.2,0.7,4.4,1.5,6.6,2.3c42.6,15.2,67,35.2,67,54.7
		s-24.4,39.5-67,54.7c-2.2,0.8-4.4,1.5-6.6,2.3C411.5,294.5,398.9,275.3,384.3,256z"/>
</g>
</svg>
