<?xml version="1.0" encoding="utf-8"?>
<!-- Generator: Adobe Illustrator 21.0.2, SVG Export Plug-In . SVG Version: 6.00 Build 0)  -->
<svg version="1.1" id="Layer_1" xmlns="http://www.w3.org/2000/svg" xmlns:xlink="http://www.w3.org/1999/xlink" x="0px" y="0px"
	 viewBox="0 0 512 512" style="enable-background:new 0 0 512 512;" xml:space="preserve">
<style type="text/css">
	.st0{fill:#00AA6B;}
	.st1{fill:#FFFFFF;}
	.st2{fill:#095D3E;}
	.st3{fill:#F7D531;}
	.st4{fill:#B73A25;}
</style>
<path class="st0" d="M256,0c141.4,0,256,114.6,256,256S397.4,512,256,512C114.6,512,0,397.4,0,256C0,114.6,114.6,0,256,0z"/>
<path class="st1" d="M118.5,200.2h68.3v184.7c0,18.8-15.4,34.2-34.2,34.2s-34.2-15.4-34.2-34.2L118.5,200.2L118.5,200.2z"/>
<path class="st2" d="M128.8,280.4v104.5c0,13.1,10.7,23.8,23.8,23.8c13.1,0,23.8-10.7,23.8-23.8V280.4H128.8z"/>
<path class="st1" d="M115,191.6h75.2c4.7,0,8.6,3.9,8.6,8.6v0c0,4.7-3.9,8.6-8.6,8.6H115c-4.7,0-8.6-3.9-8.6-8.6v0
	C106.5,195.5,110.3,191.6,115,191.6z"/>
<path class="st3" d="M198.8,200.2L198.8,200.2c0,4.7-3.9,8.6-8.6,8.6H115c-4.7,0-8.6-3.9-8.6-8.6v0H198.8z"/>
<g>
	<path class="st1" d="M293.3,95.2V238l101.3,187.2c15.2,28-3,44.7-34.6,44.7h-105H149.9c-31.7,0-49.8-16.6-34.6-44.7L216.6,238V95.2
		H293.3z"/>
	<path class="st1" d="M496.3,132.6v175.3h-117V132.6C364.1,132.6,504.5,132.6,496.3,132.6z"/>
</g>
<path class="st4" d="M432.8,132.6v-95h-50.1c-2,0-3.5-1.6-3.5-3.5v-22h-13.5v60.1c0,2-1.6,3.5-3.5,3.5h-21.2c-2,0-3.5-1.6-3.5-3.5
	V40.8h-78.9v54.4h-7.1v-58c0-2,1.6-3.5,3.5-3.5h86c2,0,3.5,1.6,3.5,3.5v31.4h14.1V8.5c0-2,1.6-3.5,3.5-3.5h20.6c2,0,3.5,1.6,3.5,3.5
	v22h50.1c2,0,3.5,1.6,3.5,3.5v98.5L432.8,132.6L432.8,132.6z"/>
<g>
	<path class="st3" d="M439.9,155.8c0,2-1.6,3.5-3.5,3.5s-3.5-1.6-3.5-3.5v-23.2h7.1L439.9,155.8L439.9,155.8z"/>
	<path class="st3" d="M258.4,95.2v49c0,2-1.6,3.5-3.5,3.5c-2,0-3.5-1.6-3.5-3.5v-49H258.4z"/>
</g>
<path class="st4" d="M207.2,291.1l-78.6,140.6c-1.9,3.9-5,11.7-2.5,15.9c3.6,6.1,17.6,7.2,23.7,7.2H360c6.1,0,20.1-1.1,23.7-7.2
	c2.5-4.3-0.6-12.1-2.5-15.9l-78.6-140.6C263.3,282.4,246.5,303.6,207.2,291.1L207.2,291.1z"/>
<path class="st1" d="M379.3,118.8h-7.1v13.8h131.1v-13.8h-7.1H379.3L379.3,118.8z"/>
<path class="st2" d="M391.5,178.9c64.9-11.2,63.8,14.4,92.6,0v119.2h-92.6V178.9z"/>
<g>
	<path class="st3" d="M391.5,137.4h11.9v4h-11.9V137.4z M391.5,294.6L391.5,294.6h5.9v4h-5.9V294.6z M391.5,285.3L391.5,285.3h11.9
		v4h-11.9V285.3z M391.5,276.1L391.5,276.1h5.9v4h-5.9V276.1z M391.5,266.8L391.5,266.8h11.9v4h-11.9V266.8z M391.5,257.6
		L391.5,257.6h5.9v4h-5.9V257.6z M391.5,248.3L391.5,248.3h11.9v4h-11.9V248.3z M391.5,239.1L391.5,239.1h5.9v4h-5.9V239.1z
		 M391.5,229.9L391.5,229.9h11.9v4h-11.9V229.9z M391.5,220.6L391.5,220.6h5.9v4h-5.9V220.6z M391.5,211.4L391.5,211.4h11.9v4h-11.9
		V211.4z M391.5,202.1L391.5,202.1h5.9v4h-5.9V202.1z M391.5,192.9L391.5,192.9h11.9v4h-11.9V192.9z M391.5,183.6L391.5,183.6h5.9v4
		h-5.9V183.6z M391.5,174.4L391.5,174.4h11.9v4h-11.9V174.4z M391.5,165.1L391.5,165.1h5.9v4h-5.9V165.1z M391.5,155.9L391.5,155.9
		h11.9v4h-11.9V155.9z M391.5,146.7L391.5,146.7h5.9v4h-5.9V146.7z"/>
	<path class="st3" d="M128.8,226.3h11.9v4h-11.9V226.3z M128.8,383.4L128.8,383.4h5.9v4h-5.9V383.4z M128.8,374.2L128.8,374.2h11.9
		v4h-11.9V374.2z M128.8,365L128.8,365h5.9v4h-5.9V365z M128.8,355.7L128.8,355.7h11.9v4h-11.9V355.7z M128.8,346.5L128.8,346.5h5.9
		v4h-5.9V346.5z M128.8,337.2L128.8,337.2h11.9v4h-11.9V337.2z M128.8,328L128.8,328h5.9v4h-5.9V328z M128.8,318.7L128.8,318.7h11.9
		v4h-11.9V318.7z M128.8,309.5L128.8,309.5h5.9v4h-5.9V309.5z M128.8,300.2L128.8,300.2h11.9v4h-11.9V300.2z M128.8,291L128.8,291
		h5.9v4h-5.9V291z M128.8,281.8L128.8,281.8h11.9v4h-11.9V281.8z M128.8,272.5L128.8,272.5h5.9v4h-5.9V272.5z M128.8,263.3
		L128.8,263.3h11.9v4h-11.9V263.3z M128.8,254L128.8,254h5.9v4h-5.9V254z M128.8,244.8L128.8,244.8h11.9v4h-11.9V244.8z
		 M128.8,235.5L128.8,235.5h5.9v4h-5.9V235.5z"/>
</g>
<path class="st2" d="M110.2,104.2c7.1,0,12.8,5.7,12.8,12.8c0,7.1-5.7,12.8-12.8,12.8c-7.1,0-12.8-5.7-12.8-12.8
	C97.4,110,103.1,104.2,110.2,104.2z"/>
<path class="st4" d="M132.4,152.2c4.6,0,8.3,3.7,8.3,8.3s-3.7,8.3-8.3,8.3s-8.3-3.7-8.3-8.3S127.8,152.2,132.4,152.2z"/>
<g>
	<path class="st1" d="M129.2,67.2c5,0,9,4,9,9s-4,9-9,9c-5,0-9-4-9-9S124.3,67.2,129.2,67.2z"/>
	<path class="st1" d="M157.2,165.4c3.1,0,5.6,2.5,5.6,5.6c0,3.1-2.5,5.6-5.6,5.6c-3.1,0-5.6-2.5-5.6-5.6
		C151.6,167.9,154.1,165.4,157.2,165.4z"/>
</g>
<path class="st0" d="M159.2,118.6c5.9,0,10.7,4.8,10.7,10.7c0,5.9-4.8,10.7-10.7,10.7c-5.9,0-10.7-4.8-10.7-10.7
	C148.5,123.4,153.3,118.6,159.2,118.6z"/>
<g>
	<path class="st1" d="M236.8,344.4c6.3,0,11.4,5.1,11.4,11.4c0,6.3-5.1,11.4-11.4,11.4c-6.3,0-11.4-5.1-11.4-11.4
		C225.4,349.5,230.5,344.4,236.8,344.4z"/>
	<path class="st1" d="M186,397.3c4.6,0,8.3,3.7,8.3,8.3c0,4.6-3.7,8.3-8.3,8.3c-4.6,0-8.3-3.7-8.3-8.3
		C177.7,401,181.4,397.3,186,397.3z"/>
	<path class="st1" d="M311.5,351.3c4.6,0,8.4,3.7,8.4,8.4c0,4.6-3.7,8.4-8.4,8.4c-4.6,0-8.4-3.7-8.4-8.4S306.9,351.3,311.5,351.3z"
		/>
	<path class="st1" d="M261.3,303.9c3.4,0,6.1,2.7,6.1,6.1c0,3.4-2.7,6.1-6.1,6.1c-3.4,0-6.1-2.7-6.1-6.1
		C255.2,306.7,258,303.9,261.3,303.9z"/>
	<path class="st1" d="M331.9,418.2c4,0,7.3,3.3,7.3,7.3s-3.3,7.3-7.3,7.3c-4,0-7.3-3.3-7.3-7.3S327.9,418.2,331.9,418.2z"/>
	<path class="st1" d="M214.9,436.2c2.6,0,4.8,2.1,4.8,4.8s-2.1,4.8-4.8,4.8s-4.8-2.1-4.8-4.8S212.3,436.2,214.9,436.2z"/>
	<path class="st1" d="M273.4,393.2c6.9,0,12.4,5.6,12.4,12.4s-5.6,12.4-12.4,12.4s-12.4-5.6-12.4-12.4
		C261,398.7,266.6,393.2,273.4,393.2z"/>
</g>
<path class="st2" d="M254,159c2.9,0,5.2,2.3,5.2,5.2c0,2.9-2.3,5.2-5.2,5.2c-2.9,0-5.2-2.3-5.2-5.2C248.8,161.3,251.1,159,254,159z"
	/>
<path class="st4" d="M249.6,188.7c5.6,0,10.1,4.5,10.1,10.1s-4.5,10.1-10.1,10.1s-10.1-4.5-10.1-10.1
	C239.5,193.3,244,188.7,249.6,188.7z"/>
<path class="st1" d="M216.6,75.1h-16.1c-13.2,0-13.2,20.1,0,20.1h16.1h76.7h16.1c13.2,0,13.2-20.1,0-20.1h-16.1H216.6z"/>
<g>
	<path class="st3" d="M216.6,95.2h-16.1c-5.5,0-10-4.5-10-10v0h129v0c0,5.5-4.5,10-10,10h-16.1H216.6z"/>
	<path class="st3" d="M379.3,132.6h-7.1v-6.9h131.1v6.9h-7.1H379.3L379.3,132.6z"/>
</g>
<path class="st0" d="M269.1,225.6c3.5,0,6.4,2.9,6.4,6.4c0,3.5-2.9,6.4-6.4,6.4s-6.4-2.9-6.4-6.4
	C262.7,228.5,265.6,225.6,269.1,225.6z"/>
<path class="st3" d="M245.1,249.1c7.7,0,13.9,6.2,13.9,13.9c0,7.7-6.2,13.9-13.9,13.9s-13.9-6.2-13.9-13.9S237.4,249.1,245.1,249.1z
	"/>
<path class="st2" d="M277.5,266.8c1.8,0,3.2,1.4,3.2,3.2s-1.4,3.2-3.2,3.2s-3.2-1.4-3.2-3.2C274.3,268.2,275.8,266.8,277.5,266.8z"
	/>
<g>
	<path class="st1" d="M213.4,344.1c2.3,0,4.1,1.8,4.1,4.1s-1.9,4.1-4.1,4.1s-4.1-1.9-4.1-4.1S211.2,344.1,213.4,344.1z"/>
	<path class="st1" d="M125.3,122.1c3.1,0,5.6,2.5,5.6,5.6c0,3.1-2.5,5.6-5.6,5.6c-3.1,0-5.6-2.5-5.6-5.6
		C119.7,124.7,122.2,122.1,125.3,122.1z"/>
</g>
</svg>
