<?xml version="1.0" encoding="utf-8"?>
<!-- Generator: Adobe Illustrator 21.0.2, SVG Export Plug-In . SVG Version: 6.00 Build 0)  -->
<svg version="1.1" id="Layer_1" xmlns="http://www.w3.org/2000/svg" xmlns:xlink="http://www.w3.org/1999/xlink" x="0px" y="0px"
	 viewBox="0 0 512 512" style="enable-background:new 0 0 512 512;" xml:space="preserve">
<style type="text/css">
	.st0{fill:#00AA6B;}
	.st1{fill:#095D3E;}
	.st2{fill:#2C7459;}
	.st3{fill:#C05441;}
	.st4{fill:#F7D531;}
	.st5{fill:#B73A25;}
	.st6{fill:#FFFFFF;}
	.st7{fill:#FEFAE8;}
</style>
<path class="st0" d="M256,0c141.4,0,256,114.6,256,256S397.4,512,256,512S0,397.4,0,256S114.6,0,256,0z"/>
<path class="st1" d="M275.6,56.9c-0.2-2.7-0.2-5.4,0.1-8.1c15.5,1.4,30.9,3.7,46.4,5.4c5,0.6,10.1,1,15.1,2
	c0.8,7.7,0.8,15.5,1.4,23.3c0.6,10.5,1.5,21,1.8,31.6c0.2,5.7,1.4,11.6-0.3,17.1c-1,3.4-2.8,6.8-5.9,8.6c-5.5,3.2-12.6,4.2-18.6,2
	c-4.2-1.3-7.9-4.5-9.4-8.7c-2.3-4.6-1.2-10.6,2.4-14.2c6.4-7.1,19.1-6.2,24.8,1.4c-0.6-12.5-0.9-24.9-1.5-37.4
	c-16.3-1.5-32.5-2.9-48.8-4.4c-0.1,2.6,0,5.2,0.2,7.8c0.5,7.6,0.8,15.3,1.3,22.9c0.1,5,1,10.1-0.6,15c-0.9,3.4-3.2,6.3-5.9,8.5
	c-3,2.3-6.8,2.6-10.4,2.9c-4.3,0.3-8.7-0.9-12.3-3.1c-3.6-2.4-6.2-6.5-6.3-10.8c-0.4-5.3,2.6-10.8,7.5-12.9
	c6.3-3.3,15.3-2.4,19.9,3.4c0.3-0.1,0.6-0.2,1-0.3C276.9,91.5,276.3,74.2,275.6,56.9L275.6,56.9z"/>
<path class="st2" d="M275.6,56.9c-0.2-2.7-0.2-5.4,0.1-8.1c15.5,1.4,30.9,3.7,46.4,5.4c4.4,0.5,8.9,0.9,13.3,1.7
	c0.5,6.4,0.6,12.8,1,19.1c0.6,10.5,1.5,21,1.8,31.6c0.2,5.7,1.4,11.6-0.3,17.1c-1,3.4-2.8,6.8-5.9,8.6c-5.5,3.2-12.6,4.2-18.6,2
	c-3.2-1-6.1-3-7.9-5.8c-1.4-4.3-0.1-9.4,3.1-12.6c6.4-7.1,19.1-6.2,24.8,1.4c-0.6-12.5-0.9-24.9-1.5-37.4l-2-0.2l-0.2-4.3
	c-16.3-1.5-32.5-2.9-48.8-4.4c-0.1,2.6,0,5.2,0.2,7.8c0.5,7.6,0.8,15.3,1.3,22.9c0.1,5,1,10.1-0.6,15c-0.9,3.4-3.2,6.3-5.9,8.5
	c-3,2.3-6.8,2.6-10.4,2.9c-4.3,0.3-8.7-0.9-12.3-3.1c-1.4-1-2.7-2.2-3.8-3.7c-0.2-0.9-0.4-1.8-0.4-2.7c-0.4-5.3,2.6-10.8,7.5-12.9
	c6.3-3.3,15.3-2.4,19.9,3.4c0.3-0.1,0.6-0.2,1-0.3C276.9,91.5,276.3,74.2,275.6,56.9L275.6,56.9z"/>
<path class="st3" d="M268.9,221.7c-11.9-9.7-23.8-19.4-36.6-21.2c-12.8-1.8-26.5,4.2-34.4,13.9c-8,9.8-10.2,23.3-16.6,31.5
	c-6.4,8.2-17,11.2-32.4,15.2c-15.4,4.1-35.7,9.3-52.4,23.6c-16.7,14.4-29.9,37.9-28.1,60.1c3.3,38.8,60.7,96.2,99.5,99.5
	c22.2,1.9,45.7-11.3,60.1-28.1c14.4-16.7,19.6-37,23.6-52.4c4.1-15.4,7-26,15.2-32.4c8.2-6.4,21.7-8.6,31.5-16.6
	c9.8-8,15.8-21.7,13.9-34.4c-1.8-12.4-11-24-20.4-35.6C291.7,244.6,269.2,222.1,268.9,221.7L268.9,221.7z"/>
<path class="st4" d="M434.2,98.9L414,78.7L267.2,220.1c2.6,2.7,20.4,20.5,25.6,25.7L434.2,98.9L434.2,98.9z"/>
<path class="st0" d="M197.3,371.1l-55.5-55.5l-10.1,10.1l55.5,55.5L197.3,371.1z"/>
<path class="st5" d="M434.2,98.9l-10.6-10.6l-9.5-9.5l9.2-22.8L457,89.7L434.2,98.9L434.2,98.9z"/>
<path class="st3" d="M491.2,55.5l-33.8-33.8l-34.2,34.2c2.6,2.6,28.6,28.6,33.8,33.8L491.2,55.5z"/>
<path class="st5" d="M243,269.9c-12.5-12.5-32.7-12.5-45.2,0c-12.5,12.5-12.5,32.7,0,45.2c12.5,12.5,32.7,12.5,45.2,0
	C255.4,302.7,255.4,282.4,243,269.9z"/>
<path class="st0" d="M178.9,372.9L140,334l-6.8,6.8l38.9,38.9L178.9,372.9L178.9,372.9z"/>
<path class="st6" d="M178.9,372.9L140,334l2-2c1.1-1.1,2.9-1.1,4,0l34.9,34.9c1.1,1.1,1.1,2.9,0,4L178.9,372.9z"/>
<path class="st5" d="M240.1,202.6c-12.5-1.4-25.8,4.5-33.6,14c-8,9.8-10.2,23.3-16.6,31.5c-6.4,8.2-17,11.2-32.4,15.2
	c-15.4,4.1-35.7,9.3-52.4,23.6c-16.7,14.4-29.9,37.9-28.1,60.1c2.9,34.8,49.4,84.6,87,96.8c-38.6-6.5-92.5-61.5-95.6-99
	c-0.9-11.2,2-22.8,7.2-33.3c5.2-10.3,12.6-19.6,20.8-26.7c5.5-4.8,11.4-8.5,17.4-11.5c12.1-6.1,24.6-9.4,34.9-12.1
	c15.4-4.1,26-7,32.4-15.2s8.6-21.7,16.6-31.5c8-9.8,21.7-15.8,34.4-13.9C235,200.9,237.6,201.6,240.1,202.6L240.1,202.6z"/>
<path class="st6" d="M173.2,360.6L431.5,96.2l-2.3-2.3L170.9,358.3L173.2,360.6z M154.6,342L154.6,342l-2.3-2.3L416.7,81.4l2.3,2.3
	L154.6,342z M161.4,347.5L161.4,347.5l-2.3-2.3L420.9,85.6l2.3,2.3L161.4,347.5z M167.7,353.7L167.7,353.7l-2.3-2.3L425,89.8
	l2.3,2.3L167.7,353.7z"/>
<path class="st7" d="M489.5,66.2l-43.7-43.7l-2.9,2.9l43.7,43.7L489.5,66.2L489.5,66.2z"/>
<g>
	<path class="st2" d="M492,65.7l-2.3-2.3c-0.4-0.4-1.1-0.4-1.5,0l-4.2,4.2c-0.4,0.4-0.4,1.1,0,1.5l2.3,2.3c0.4,0.4,1.1,0.4,1.5,0
		l4.2-4.2C492.4,66.8,492.4,66.1,492,65.7z"/>
	<path class="st2" d="M448.6,22.4l-2.3-2.3c-0.4-0.4-1.1-0.4-1.5,0l-4.2,4.2c-0.4,0.4-0.4,1.1,0,1.5l2.3,2.3c0.4,0.4,1.1,0.4,1.5,0
		l4.2-4.2C449,23.4,449,22.8,448.6,22.4z"/>
</g>
<path class="st7" d="M478.9,76.8l-43.7-43.7l-2.9,2.9L476,79.7L478.9,76.8L478.9,76.8z"/>
<g>
	<path class="st2" d="M481.4,76.3l-2.3-2.3c-0.4-0.4-1.1-0.4-1.5,0l-4.2,4.2c-0.4,0.4-0.4,1.1,0,1.5l2.3,2.3c0.4,0.4,1.1,0.4,1.5,0
		l4.2-4.2C481.8,77.4,481.8,76.7,481.4,76.3L481.4,76.3z"/>
	<path class="st2" d="M438,33l-2.3-2.3c-0.4-0.4-1.1-0.4-1.5,0l-4.2,4.2c-0.4,0.4-0.4,1.1,0,1.5l2.3,2.3c0.4,0.4,1.1,0.4,1.5,0
		l4.2-4.2C438.4,34,438.4,33.4,438,33L438,33z"/>
</g>
<path class="st7" d="M468.3,87.4l-43.7-43.7l-2.9,2.9l43.7,43.7L468.3,87.4L468.3,87.4z"/>
<g>
	<path class="st2" d="M470.8,86.9l-2.3-2.3c-0.4-0.4-1.1-0.4-1.5,0l-4.2,4.2c-0.4,0.4-0.4,1.1,0,1.5l2.3,2.3c0.4,0.4,1.1,0.4,1.5,0
		l4.2-4.2C471.2,88,471.2,87.3,470.8,86.9z"/>
	<path class="st2" d="M427.4,43.6l-2.3-2.3c-0.4-0.4-1.1-0.4-1.5,0l-4.2,4.2c-0.4,0.4-0.4,1.1,0,1.5l2.3,2.3c0.4,0.4,1.1,0.4,1.5,0
		l4.2-4.2C427.9,44.6,427.9,44,427.4,43.6z"/>
</g>
<g>
	<path class="st0" d="M479.6,52c-2-2-5.1-2-7.1,0c-2,2-2,5.1,0,7.1c2,2,5.1,2,7.1,0C481.6,57.2,481.6,54,479.6,52z"/>
	<path class="st0" d="M461.5,33.9c-2-2-5.1-2-7.1,0c-2,2-2,5.1,0,7.1c2,1.9,5.1,1.9,7.1,0C463.4,39,463.4,35.8,461.5,33.9z"/>
	<path class="st0" d="M469,62.6c-1.9-2-5.1-2-7.1,0c-2,1.9-2,5.1,0,7.1c2,1.9,5.1,1.9,7.1,0C471,67.7,471,64.6,469,62.6z"/>
	<path class="st0" d="M450.9,44.5c-2-2-5.1-2-7.1,0c-2,2-2,5.1,0,7.1c2,2,5.1,2,7.1,0C452.8,49.6,452.8,46.4,450.9,44.5z"/>
	<path class="st0" d="M458.4,73.2c-2-1.9-5.1-1.9-7.1,0c-2,2-2,5.1,0,7.1c2,2,5.1,2,7.1,0C460.4,78.3,460.4,75.2,458.4,73.2z"/>
	<path class="st0" d="M440.3,55.1c-2-2-5.1-2-7.1,0c-2,2-2,5.1,0,7.1c2,1.9,5.1,1.9,7.1,0C442.2,60.2,442.2,57,440.3,55.1z"/>
	<path class="st0" d="M279.5,152.9c-0.1-0.9-0.1-1.7,0-2.6c5,0.4,9.9,1.2,14.8,1.7c1.6,0.2,3.2,0.3,4.8,0.6c0.3,2.5,0.3,5,0.4,7.4
		c0.2,3.4,0.5,6.7,0.6,10.1c0.1,1.8,0.4,3.7-0.1,5.5c-0.3,1.1-0.9,2.2-1.9,2.8c-1.8,1-4,1.3-5.9,0.6c-1.3-0.4-2.5-1.4-3-2.8
		c-0.7-1.5-0.4-3.4,0.8-4.5c2.1-2.3,6.1-2,7.9,0.4c-0.2-4-0.3-7.9-0.5-11.9c-5.2-0.5-10.4-0.9-15.6-1.4c0,0.8,0,1.7,0.1,2.5
		c0.1,2.4,0.3,4.9,0.4,7.3c0,1.6,0.3,3.2-0.2,4.8c-0.3,1.1-1,2-1.9,2.7c-0.9,0.7-2.2,0.8-3.3,0.9c-1.4,0.1-2.8-0.3-3.9-1
		c-1.1-0.8-2-2.1-2-3.4c-0.1-1.7,0.8-3.4,2.4-4.1c2-1.1,4.9-0.8,6.3,1.1c0.1,0,0.2-0.1,0.3-0.1C279.9,163.9,279.7,158.4,279.5,152.9
		L279.5,152.9z"/>
</g>
</svg>
