<?xml version="1.0" encoding="utf-8"?>
<!-- Generator: Adobe Illustrator 21.0.2, SVG Export Plug-In . SVG Version: 6.00 Build 0)  -->
<svg version="1.1" id="Layer_1" xmlns="http://www.w3.org/2000/svg" xmlns:xlink="http://www.w3.org/1999/xlink" x="0px" y="0px"
	 viewBox="0 0 498.4 498.4" style="enable-background:new 0 0 498.4 498.4;" xml:space="preserve">
<style type="text/css">
	.st0{fill:#454949;}
	.st1{fill:#252828;}
	.st2{fill:#2ABA9E;}
	.st3{fill:#1A9992;}
	.st4{fill:#4C5254;}
	.st5{fill:#EA1F0A;}
	.st6{fill:#FF5512;}
</style>
<g>
	<path class="st0" d="M104,324.4c0,15.2-12.8,28.8-28,28.8H29.6c-15.2,0-27.2-13.6-27.2-28.8l36-136.8c0-15.2,12-26.4,27.2-26.4H112
		c15.2,0,27.2,8.8,27.2,24L104,324.4z"/>
	<path class="st0" d="M386.4,129.2h-352v58.4L0,324.4c0,15.2,14.4,28.8,29.6,28.8H76c15.2,0,28-13.6,28-28.8l19.2-75.2h91.2
		c15.2,0,20-12,20-27.2v-36.8h152V129.2z M202.4,207.6c0,12-1.6,25.6-13.6,25.6h-60l11.2-48h62.4V207.6z"/>
</g>
<path class="st1" d="M122.4,249.2h92c15.2,0,20-12,20-27.2v-36.8h152v-56h-352v56 M202.4,207.6c0,12-1.6,25.6-13.6,25.6h-60l11.2-48
	h62.4V207.6z"/>
<polygon class="st2" points="170.4,225.2 160,225.2 150.4,193.2 170.4,193.2 "/>
<polyline class="st3" points="154.4,193.2 170.4,193.2 170.4,225.2 "/>
<g>
	<polygon class="st2" points="412.8,25.2 404,57.2 53.6,57.2 37.6,121.2 426.4,121.2 426.4,59.6 426.4,58 426.4,25.2 	"/>
	<path class="st2" d="M71.2,209.2H28.8l-4,16h46.4c3.2,0,5.6-4.8,5.6-8S74.4,209.2,71.2,209.2z"/>
	<path class="st2" d="M63.2,241.2H20.8l-4,16h46.4c3.2,0,5.6-4.8,5.6-8C68.8,246,66.4,241.2,63.2,241.2z"/>
	<path class="st2" d="M55.2,273.2H12.8l-4,16h46.4c3.2,0,5.6-4.8,5.6-8S58.4,273.2,55.2,273.2z"/>
</g>
<path class="st1" d="M394.4,177.2c0,4.8-3.2,8-8,8l0,0c-4.8,0-8-3.2-8-8v-40c0-4.8,3.2-8,8-8l0,0c4.8,0,8,3.2,8,8V177.2z"/>
<polygon class="st3" points="48,81.2 37.6,121.2 426.4,121.2 426.4,81.2 "/>
<path class="st2" d="M426.4,114.8c0,3.2-4.8,6.4-8,6.4l0,0c-3.2,0-8-3.2-8-6.4V87.6c0-3.2,4.8-6.4,8-6.4l0,0c3.2,0,8,3.2,8,6.4
	V114.8z"/>
<path class="st4" d="M34.4,361.2h24v58.4c0,14.4,10.4,24,24.8,24s24.8-10.4,24.8-26.4h24c0,32-21.6,50.4-48.8,50.4
	s-48.8-20.8-48.8-48C34.4,419.6,34.4,361.2,34.4,361.2z"/>
<path class="st1" d="M119.2,431.6c6.4,0,12-5.6,12-12c0-14.4,13.6-25.6,27.2-25.6s27.2,11.2,27.2,25.6v53.6h24v-53.6
	c0-27.2-24-49.6-51.2-49.6s-51.2,22.4-51.2,49.6C107.2,426.8,112.8,431.6,119.2,431.6z"/>
<g>
	<circle class="st2" cx="221.6" cy="157.2" r="7.2"/>
	<circle class="st2" cx="260.8" cy="157.2" r="7.2"/>
	<circle class="st2" cx="300" cy="157.2" r="7.2"/>
</g>
<path class="st5" d="M434.4,187.6c-16.8,0-31.2-13.6-31.2-31.2s13.6-31.2,31.2-31.2"/>
<path class="st6" d="M498.4,153.2h-72.8c-4,0-6.4,0-6.4,4s3.2,4,6.4,4h72.8L498.4,153.2L498.4,153.2z"/>
</svg>
