<?xml version="1.0" encoding="utf-8"?>
<!-- Generator: Adobe Illustrator 21.0.2, SVG Export Plug-In . SVG Version: 6.00 Build 0)  -->
<svg version="1.1" id="Capa_1" xmlns="http://www.w3.org/2000/svg" xmlns:xlink="http://www.w3.org/1999/xlink" x="0px" y="0px"
	 viewBox="0 0 512 512" style="enable-background:new 0 0 512 512;" xml:space="preserve">
<style type="text/css">
	.st0{fill:#9E776C;}
</style>
<g>
	<g>
		<path class="st0" d="M286,388h-60c-8.3,0-15,6.7-15,15s6.7,15,15,15h60c8.3,0,15-6.7,15-15S294.3,388,286,388z"/>
	</g>
</g>
<g>
	<g>
		<path class="st0" d="M484.7,413.8l-36.2-115.4c0-0.1-0.1-0.2-0.1-0.4c-9.4-26.5-27.1-49.6-49.9-65.7C417,218,421,203.1,421,193
			c0-8.8-2.9-17.3-8.6-25.2c0,0,0,0,0,0L318.3,31.4C304,11.4,281.7,0,257.2,0c-24.1,0-46.1,11.1-60.4,30.6L100,167.2c0,0,0,0,0,0
			c-5.9,8.1-9,16.8-9,25.8c0,10.2,4,25.1,22.5,39.4c-22.9,16.1-40.6,39.1-49.9,65.7c0,0.1-0.1,0.2-0.1,0.4L27.3,413.8
			C11.5,462.3,47.6,512,98.6,512c9.6,0,301.4,0,314.8,0C464.4,512,500.5,462.3,484.7,413.8z M221,48.4c8.6-11.7,21.8-18.4,36.3-18.4
			c0.1,0,0.2,0,0.3,0c14.6,0.1,27.8,7,36.3,18.8l54.8,81.3c-26.5-7.8-58.4-12.2-92.7-12.2c-22.2,0-43.4,1.8-62.8,5.3
			c-0.1,0-0.1,0-0.2,0c-10,1.8-19.5,3.9-28.4,6.5L221,48.4z M300.9,150.9v14.3c-1.1,24-20.8,42.8-44.9,42.8s-43.8-18.8-44.9-42.8
			v-14.4c13.7-1.8,28.7-2.8,44.9-2.8C272,148,287.1,149.1,300.9,150.9z M125.6,183.2c8.4-9.8,27.6-19.9,55.5-26.8v9.1
			c0,0.2,0,0.4,0,0.6c1.6,40.3,34.6,71.9,74.9,71.9s73.3-31.6,74.9-71.9c0-0.2,0-0.4,0-0.6v-9c27.6,6.8,47.3,16.9,55.8,27
			c2.3,2.7,4.3,6,4.3,9.5c0,6.6-7.3,13-11.7,16.3c-0.1,0-0.1,0.1-0.2,0.1c-0.1,0-0.1,0.1-0.2,0.1l-121.2,96
			c-4.1-3.1-121.2-93.3-124-95.5c-0.1,0-0.1-0.1-0.2-0.1c-0.1,0-0.1-0.1-0.2-0.1c-4.6-3.3-12.4-10-12.4-16.8
			C121,189.4,123.2,185.9,125.6,183.2z M121,355v127H98.6c-30.6,0-52.3-29.8-42.8-58.9l36.1-115.2c8.4-23.6,25.2-43.6,46.9-56
			l75.5,58.2H166C141.2,310,121,330.2,121,355z M361,482H151V355c0-8.3,6.7-15,15-15h180c8.3,0,15,6.7,15,15V482z M413.4,482H391
			V355c0-24.8-20.2-45-45-45h-45.5l73.1-57.9c21.7,12.5,38,32,46.4,55.8l36.1,115.2C465.7,452.2,444,482,413.4,482z"/>
	</g>
</g>
</svg>
