<?xml version="1.0" encoding="utf-8"?>
<!-- Generator: Adobe Illustrator 21.0.0, SVG Export Plug-In . SVG Version: 6.00 Build 0)  -->
<svg version="1.1" id="Capa_1" xmlns="http://www.w3.org/2000/svg" xmlns:xlink="http://www.w3.org/1999/xlink" x="0px" y="0px"
	 viewBox="0 0 510 510" style="enable-background:new 0 0 510 510;" xml:space="preserve">
<style type="text/css">
	.st0{fill:#FFFFFF;}
</style>
<g>
	<g id="post-instagram">
		<path class="st0" d="M354.8,124H153.2c-13.9,0-25.2,11.3-25.2,25.2v201.6c0,13.9,11.3,25.2,25.2,25.2h201.6
			c13.9,0,25.2-11.3,25.2-25.2V149.2C380,135.3,368.7,124,354.8,124z M254,199.6c27.7,0,50.4,22.7,50.4,50.4s-22.7,50.4-50.4,50.4
			s-50.4-22.7-50.4-50.4S226.3,199.6,254,199.6z M159.5,350.8c-3.8,0-6.3-2.5-6.3-6.3V237.4h26.5c-1.3,3.8-1.3,8.8-1.3,12.6
			c0,41.6,34,75.6,75.6,75.6s75.6-34,75.6-75.6c0-3.8,0-8.8-1.3-12.6h26.5v107.1c0,3.8-2.5,6.3-6.3,6.3H159.5L159.5,350.8z
			 M354.8,180.7c0,3.8-2.5,6.3-6.3,6.3h-25.2c-3.8,0-6.3-2.5-6.3-6.3v-25.2c0-3.8,2.5-6.3,6.3-6.3h25.2c3.8,0,6.3,2.5,6.3,6.3V180.7
			z"/>
	</g>
</g>
</svg>
