<?xml version="1.0" encoding="utf-8"?>
<!-- Generator: Adobe Illustrator 21.0.2, SVG Export Plug-In . SVG Version: 6.00 Build 0)  -->
<svg version="1.1" id="Capa_1" xmlns="http://www.w3.org/2000/svg" xmlns:xlink="http://www.w3.org/1999/xlink" x="0px" y="0px"
	 viewBox="0 0 512 512" style="enable-background:new 0 0 512 512;" xml:space="preserve">
<style type="text/css">
	.st0{fill:#00AA6B;}
</style>
<g>
	<path class="st0" d="M512,215.8c0-18.2-14.7-33-33-33c-18.2,0-33,14.7-33,33c0,8.7,3.4,16.5,8.9,22.4l-13.7,23.2
		c-2.3-0.5-4.6-0.8-7-0.8c-13.3,0-24.8,7.9-29.9,19.3h-32.7c-4.8-10.6-15-18.1-27.1-19.2l-14.2-24.3c4.6-5.7,7.4-12.9,7.4-20.7
		c0-7.5-2.5-14.4-6.8-20l14.5-24.7c0.4,0,0.8,0,1.2,0c18.2,0,32.9-14.7,32.9-32.9s-14.7-33-32.9-33s-33,14.8-33,33
		c0,7.1,2.3,13.6,6.1,19l-14.8,25.6c-0.1,0-0.1,0-0.2,0c-13.5,0-25,8.1-30.1,19.6l-36.7,0.2c-5.1-11.6-16.6-19.7-30.1-19.8l-14.5-25
		c5.7-5.9,9.2-14,9.2-22.9c0-7.6-2.6-14.6-6.9-20.2l13.6-23.5c17.5-0.8,31.4-15.2,31.4-32.9c0-18.2-14.8-32.9-33-32.9
		s-33,14.7-33,32.9c0,8.2,3,15.7,8,21.5l-13.1,22.1c0,0,0,0-0.1,0c-14,0-25.9,8.8-30.7,21.1h-37.9c-5.5-10.6-16.5-17.9-29.3-17.9
		c-18.2,0-33,14.8-33,33s14.8,32.9,33,32.9c12.6,0,23.6-7.1,29.2-17.6h41.5c5.1,7.5,13.2,12.7,22.6,14.1l16.6,28.1
		c-4.3,5.6-6.8,12.5-6.8,20.1c0,7.9,2.8,15.2,7.5,20.9L168,260.8c-12.6,0.6-23.4,8.3-28.4,19.2h-38c-5.2-11.4-16.6-19.3-30-19.3
		c-18.2,0-33,14.8-33,33c0,7.9,2.8,15.3,7.6,21l-14.4,25.1C14.2,340.4,0,354.9,0,372.7c0,18.2,14.8,32.9,33,32.9s33-14.7,33-32.9
		c0-7.9-2.8-15.2-7.5-20.9l14.3-25.2c11.6-0.4,21.6-6.8,27.2-16.1h41.3c5.1,8.7,14.1,14.8,24.7,16l15.4,26.6
		c-4.1,5.5-6.6,12.3-6.6,19.7c0,8.2,3,15.7,8,21.5l-15.3,26.4c-17.2,1.1-30.8,15.4-30.8,32.8c0,18.2,14.7,33,32.9,33s33-14.8,33-33
		c0-8.5-3.3-16.3-8.6-22.1l8.1-14c0,0,0,0,0,0l6.9-11.8c12.3-0.5,22.8-7.6,28.1-17.8h38.4c5.3,10.3,15.9,17.4,28.2,17.8l14.4,24.9
		c-5.7,5.9-9.3,14-9.3,22.9c0,18.2,14.8,33,33,33s33-14.8,33-33c0-17.1-13-31.1-29.6-32.8l-15.3-26.6c5-5.7,7.9-13.2,7.9-21.4
		c0-7.5-2.5-14.2-6.6-19.8l15.5-26.7c10-1.5,18.5-7.4,23.4-15.8h35.9c5.7,9.7,16.3,16.2,28.3,16.2c18.2,0,32.9-14.8,32.9-33
		c0-4.8-1-9.4-2.9-13.6l18.1-31.5C499,247,512,232.9,512,215.8z M304.6,340.8c-13.6,0-25.2,7-30.3,18.7h-36.5
		c-5.1-11.7-16.7-19.9-30.3-19.9c-0.4,0-0.8,0-1.2,0.1l-13.2-23.3c5.7-5.9,9.2-14,9.2-22.9c0-8.4-3.2-16-8.3-21.8l13.3-23.1
		c0,0,0.1,0,0.1,0c12.8,0,23.8-7.3,29.3-17.9h38.4c5.3,10.3,15.8,17.4,28.1,17.8l13.3,23.4c-5,5.8-8.1,13.3-8.1,21.6
		c0,9,3.6,17.7,9.4,23.7L304.6,340.8C304.7,340.8,304.6,340.8,304.6,340.8z"/>
</g>
</svg>
