<?xml version="1.0" encoding="utf-8"?>
<!-- Generator: Adobe Illustrator 21.0.2, SVG Export Plug-In . SVG Version: 6.00 Build 0)  -->
<svg version="1.1" id="Layer_1" xmlns="http://www.w3.org/2000/svg" xmlns:xlink="http://www.w3.org/1999/xlink" x="0px" y="0px"
	 viewBox="0 0 512 512" style="enable-background:new 0 0 512 512;" xml:space="preserve">
<style type="text/css">
	.st0{fill:#FFFFFF;}
</style>
<title>phone</title>
<path class="st0" d="M168.6,105.5c5.7,2.5,9.2,7.5,13.5,11.7c14.8,14.6,29.3,29.5,44.2,44.1c5.7,5.6,5.8,12.5-0.2,18.2
	c-7,6.5-13.7,13.5-20.5,20.3c-1.6,1.6-2.9,3.4-4.3,4.9l-69.3-69.3c0.4-0.4,0.6-0.9,1.1-1.2c8.3-8.3,16.4-16.6,24.8-24.8
	c1.6-1.6,3.8-2.5,5.7-3.8L168.6,105.5z"/>
<path class="st0" d="M363.6,395c-5.2,4.9-11.1,7.5-17.6,9.1c-13.2,3.4-26.6,2.6-39.9,0.2c-17.3-3.2-33.8-9.3-49.1-18.2
	c-18.3-10.4-35-23-51-36.6c-12.2-10.5-23.9-21.8-34.7-33.8c-12.2-13.5-23.7-27.8-33.8-43c-7.7-11.3-14.5-23-19.8-35.6
	c-7-16.7-11.1-34.1-11.1-52.3c0-9.2,1.3-18.3,5.3-26.6c1.5-3.1,3.6-5.9,5.5-9l1.1-0.4c2.2,2.5,4.3,5,6.5,7.3
	c11.2,11.3,22.4,22.6,33.8,33.8c9.7,9.7,19.5,19.5,29.2,29.1c1.1,1.1,1.1,2.2,0.6,3.5c-2.3,7-2.2,14.7,0.2,21.7
	c1.8,5.2,4.8,9.4,8.4,13.2c14.1,14.6,28.1,29.4,42.4,43.8c6.3,6.3,12.9,12.2,19.8,17.8c8.9,7.2,19.2,8.3,30,5.3
	c2.2-0.6,3.4-0.2,5,1.4c10,10.2,20.3,20.3,30.4,30.4c11,11,21.9,21.9,32.9,32.9C359.6,391.1,361.4,393.1,363.6,395z"/>
<path class="st0" d="M308.4,311.9c8.5-8.4,17.1-16.9,25.6-25.5c5.5-5.5,11.7-5.6,17.3-0.1l52.3,52.3c5.3,5.3,5.3,11,0,16.4
	c-8.3,8.3-16.6,16.7-25,25c-0.4,0.4-0.7,0.6-1.1,0.9L308.4,311.9z"/>
</svg>
