<?xml version="1.0" encoding="iso-8859-1"?>
<!-- Generator: Adobe Illustrator 19.0.0, SVG Export Plug-In . SVG Version: 6.00 Build 0)  -->
<svg version="1.1" id="Capa_1" xmlns="http://www.w3.org/2000/svg" xmlns:xlink="http://www.w3.org/1999/xlink" x="0px" y="0px"
	 viewBox="0 0 512.001 512.001" style="enable-background:new 0 0 512.001 512.001;" xml:space="preserve">
<circle style="fill:#535B70;" cx="256" cy="256" r="256"/>
<path style="fill:#FFFFFF;" d="M256,186.839L151.96,367.021H360.04L256,186.839z"/>
<path style="fill:#60D89E;" d="M504.121,233.849l-118.857,31.848c-5.977-18.787-15.945-35.788-28.912-50.03l86.977-86.988
	C471.27,158.02,492.387,193.923,504.121,233.849z"/>
<path style="fill:#4ACC9A;" d="M511.718,268.111c-1.567,33.635-9.624,65.578-22.946,94.595l-100.206-26.843v-0.01
	c2.038-9.31,3.103-18.965,3.103-28.891c0-9.927-1.066-19.592-3.103-28.902l118.857-31.848
	C509.158,253.399,510.589,260.702,511.718,268.111z"/>
<path style="fill:#3CBC9A;" d="M483.025,374.419c-16.739,32.026-40.061,60.071-68.169,82.348l-58.504-58.514
	c12.967-14.242,22.936-31.242,28.912-50.03L483.025,374.419z"/>
<path style="fill:#F96D8C;" d="M404.522,464.541c-26.342,18.787-56.383,32.716-88.827,40.458l-18.432-68.775
	c18.787-5.977,35.788-15.945,50.03-28.912L404.522,464.541z"/>
<path style="fill:#F44E72;" d="M303.146,507.664C287.869,510.517,272.112,512,256,512s-31.869-1.484-47.146-4.336l18.254-68.117
	c9.31,2.017,18.975,3.082,28.891,3.082c9.906,0,19.581-1.066,28.891-3.114L303.146,507.664z"/>
<path style="fill:#E22952;" d="M214.737,436.224L196.305,505c-32.444-7.743-62.485-21.671-88.827-40.469l57.219-57.219
	C178.939,420.279,195.95,430.248,214.737,436.224z"/>
<path style="fill:#42A3CC;" d="M434.27,119.631l-86.977,86.977c-14.242-12.967-31.232-22.936-50.019-28.902l31.838-118.868
	C369.027,70.562,404.919,91.68,434.27,119.631z"/>
<path style="fill:#51B0E0;" d="M316.74,55.537l-31.838,118.868h-0.01c-9.31-2.048-18.965-3.114-28.891-3.114
	c-9.916,0-19.602,1.066-28.912,3.082L195.26,55.537c19.477-4.702,39.811-7.189,60.74-7.189
	C276.919,48.348,297.263,50.835,316.74,55.537z"/>
<path style="fill:#6EC6EA;" d="M214.727,177.696c-18.787,5.977-35.788,15.945-50.03,28.912L77.72,119.631
	c29.341-27.951,65.243-49.068,105.169-60.792L214.727,177.696z"/>
<path style="fill:#EFAA3A;" d="M155.648,215.667c-12.978,14.242-22.936,31.232-28.902,50.019L7.868,233.849
	C19.602,193.923,40.72,158.02,68.66,128.68L155.648,215.667z"/>
<path style="fill:#FFCF4B;" d="M120.33,306.96c0,9.927,1.055,19.592,3.093,28.902L23.228,362.705
	C9.906,333.689,1.849,301.746,0.282,268.121c1.118-7.408,2.55-14.712,4.284-21.901l118.857,31.838
	C121.386,287.368,120.33,297.034,120.33,306.96z"/>
<path style="fill:#FFE369;" d="M155.648,398.253l-58.504,58.504c-28.108-22.267-51.43-50.312-68.169-82.338l97.771-26.185
	C132.712,367.021,142.67,384.011,155.648,398.253z"/>
<path style="fill:#E8E8E8;" d="M454.037,143.308L317.929,279.417c-7.542,7.542-18.643,9.349-27.895,5.427
	c-3.725-1.579-8.04-0.68-10.901,2.181l-4.987,4.987c-6.394,6.394-17.013,6.548-23.285,0.034c-6.079-6.314-6.006-16.362,0.218-22.587
	l5.243-5.243c2.861-2.861,3.76-7.176,2.181-10.901c-3.922-9.252-2.116-20.353,5.427-27.895L400.039,89.31L454.037,143.308z"/>
<path style="fill:#F44E72;" d="M257.497,285.655l0.09,0.09c2.656,2.65,7.251,2.541,10.041-0.25l4.985-4.985
	c5.569-5.569,13.821-7.199,21.014-4.151c6.115,2.592,13.089,1.232,17.78-3.459l111.903-111.897l-49.985,0.642l-22.638,0.288
	l-10.369,0.135l-69.875,69.869c-4.691,4.691-6.045,11.672-3.459,17.78c3.054,7.199,1.424,15.445-4.145,21.014l-5.249,5.249
	C254.951,278.622,254.906,282.96,257.497,285.655z"/>
<path style="fill:#FFCF4B;" d="M499.192,44.156L499.192,44.156c17.079,17.079,17.079,44.768,0,61.846l-37.04,37.04l-61.846-61.846
	l37.04-37.04C454.423,27.078,482.113,27.078,499.192,44.156z"/>
<path style="fill:#EFAA3A;" d="M490.548,37.438c3.083,1.829,5.991,4.067,8.643,6.718l0,0c17.079,17.079,17.079,44.768,0,61.846
	l-37.04,37.04l-15.361-15.361l37.04-37.04C498.256,76.214,500.495,54.216,490.548,37.438z"/>
<path style="fill:#FFCF4B;" d="M406.448,69.65l67.25,67.25c5.467,5.467,5.467,14.332,0,19.799l-3.941,3.941
	c-5.467,5.467-14.332,5.467-19.799,0l-67.25-67.25c-5.467-5.467-5.467-14.332,0-19.799l3.941-3.941
	C392.116,64.182,400.981,64.182,406.448,69.65z"/>
<path style="fill:#EFAA3A;" d="M448.404,146.613l11.266-11.266c3.445-3.445,3.445-9.029,0-12.474l17.689,17.689
	c3.445,3.445,3.445,9.029,0,12.474l-11.266,11.266c-3.445,3.445-9.029,3.445-12.474,0l-17.689-17.689
	C439.375,150.058,444.959,150.058,448.404,146.613z"/>
<path style="fill:#F96D8C;" d="M288.689,231.191l3.914,3.914c2.008,2.002,5.255,2.002,7.263,0l73.463-73.463l-22.638,0.288
	l-62.002,62.002C286.687,225.937,286.687,229.189,288.689,231.191z"/>
<path style="fill:#F9F9F9;" d="M350.691,161.931l22.638-0.288l20.442-20.443c2.002-2.008,2.002-5.255,0-7.263l-3.914-3.914
	c-2.002-2.002-5.255-2.002-7.257,0L350.691,161.931z"/>
<g>
</g>
<g>
</g>
<g>
</g>
<g>
</g>
<g>
</g>
<g>
</g>
<g>
</g>
<g>
</g>
<g>
</g>
<g>
</g>
<g>
</g>
<g>
</g>
<g>
</g>
<g>
</g>
<g>
</g>
</svg>
