<svg xmlns="http://www.w3.org/2000/svg" xmlns:xlink="http://www.w3.org/1999/xlink" viewBox="0 0 1920 1080"><defs><style>.cls-1,.cls-2{fill:none;}.cls-2{stroke:#000;stroke-miterlimit:10;stroke-width:0.75px;}.cls-3{isolation:isolate;}.cls-4{fill:#2afbff;}.cls-5{opacity:0.39;}.cls-6{opacity:0.5;fill:url(#Phy_b);}.cls-7{fill:#007f79;mix-blend-mode:overlay;}</style><pattern id="Phy_b" data-name="Phy_b" width="604.94" height="626.41" patternUnits="userSpaceOnUse" viewBox="0 0 604.94 626.41"><rect class="cls-1" width="604.94" height="626.41"/><ellipse class="cls-2" cx="583.18" cy="424.41" rx="10" ry="101" transform="translate(62.33 923.36) rotate(-79.82)"/><circle class="cls-2" cx="583.68" cy="421.91" r="24.5"/><path class="cls-2" d="M537.19,571.15,527.91,553v20.32s-25.18,8-24.74,10.6c.32,1.91,17.34,1.76,27.68,1,1.27,5.19,4.11,14.76,7.66,14.43s2-10.12.88-15.84c4.69-1.71,23.52-6.15,24.74-10.22C565.46,568.94,537.19,571.15,537.19,571.15Z"/><rect class="cls-2" x="544.68" y="319.91" width="26" height="26"/><path class="cls-2" d="M542.81,330.71c-6.47-3.79-14.41-7.66-21.07-4.21-5.71,3-8.67,10.63-15,11.57-5.22.77-9.69-3.51-13.14-7.5s-7.63-8.43-12.89-8.13c-3.42.2-6.36,2.41-8.85,4.76s-4.86,5-8,6.37-7.34,1.11-9.32-1.68"/><path class="cls-2" d="M551,514.57c-.29-5.34-.58-10.77.76-15.95s4.57-10.14,9.51-12.2c6.49-2.71,14,.19,19.81,4.09s11.18,8.9,17.89,11c2.69.84,5.83,1.11,8.13-.52a11.16,11.16,0,0,0,2.79-3.32,152.46,152.46,0,0,0,10.36-19.35c1.72-3.87,3.44-8,6.88-10.49,6.16-4.44,14.71-1.66,21.65,1.41s15.21,6.25,21.73,2.36c6.12-3.65,7.56-11.68,9-18.67s4.6-15,11.58-16.47c8-1.65,14.81,6.51,22.92,7.12a13.16,13.16,0,0,0,13.17-9.05c.67-2.21.72-4.56,1.18-6.83,2.32-11.31,16.58-18.31,26.95-13.25"/><circle class="cls-2" cx="545.68" cy="497.91" r="2.5"/><circle class="cls-2" cx="573.18" cy="479.41" r="3"/><circle class="cls-2" cx="566.68" cy="497.91" r="2.5"/><line class="cls-2" x1="590.18" y1="382.41" x2="658.68" y2="313.91"/><line class="cls-2" x1="463.18" y1="488.41" x2="540.68" y2="410.91"/><line class="cls-2" x1="468.18" y1="514.41" x2="524.68" y2="457.91"/><line class="cls-2" x1="496.18" y1="507.41" x2="535.68" y2="467.91"/><line class="cls-2" x1="548.18" y1="452.41" x2="560.68" y2="439.91"/><line class="cls-2" x1="564.18" y1="523.41" x2="629.68" y2="588.91"/><line class="cls-2" x1="583.18" y1="514.41" x2="631.18" y2="562.41"/><line class="cls-2" x1="470.18" y1="545.41" x2="470.18" y2="593.41"/><line class="cls-2" x1="482.18" y1="614.41" x2="546.18" y2="614.41"/><line class="cls-2" x1="488.18" y1="566.41" x2="488.18" y2="596.41"/><line class="cls-2" x1="506.18" y1="604.41" x2="530.18" y2="604.41"/><line class="cls-2" x1="466.18" y1="420.41" x2="466.18" y2="370.41"/><line class="cls-2" x1="482.18" y1="370.41" x2="548.18" y2="370.41"/><line class="cls-2" x1="470.18" y1="354.41" x2="510.18" y2="354.41"/><line class="cls-2" x1="533.18" y1="352.41" x2="573.18" y2="352.41"/><line class="cls-2" x1="518.18" y1="362.41" x2="548.18" y2="362.41"/><circle class="cls-2" cx="499.18" cy="389.41" r="3"/><circle class="cls-2" cx="468.18" cy="437.41" r="2"/><circle class="cls-2" cx="472.18" cy="454.41" r="2"/><circle class="cls-2" cx="484.18" cy="405.41" r="2"/><circle class="cls-2" cx="530.18" cy="392.41" r="3"/><circle class="cls-2" cx="508.18" cy="414.41" r="2"/><circle class="cls-2" cx="584.18" cy="358.41" r="4"/><circle class="cls-2" cx="571.68" cy="378.91" r="1.5"/><circle class="cls-2" cx="591.18" cy="325.41" r="3"/><circle class="cls-2" cx="565.18" cy="466.41" r="6"/><circle class="cls-2" cx="589.68" cy="467.91" r="1.5"/><circle class="cls-2" cx="526.18" cy="520.41" r="4"/><circle class="cls-2" cx="484.68" cy="526.91" r="2.5"/><circle class="cls-2" cx="500.18" cy="547.41" r="2"/><circle class="cls-2" cx="509.18" cy="527.41" r="1"/><circle class="cls-2" cx="543.68" cy="552.91" r="3.5"/><circle class="cls-2" cx="586.18" cy="591.41" r="2"/><circle class="cls-2" cx="592.18" cy="575.41" r="2"/><circle class="cls-2" cx="573.18" cy="564.41" r="2"/><circle class="cls-2" cx="594.18" cy="620.41" r="6"/><circle class="cls-2" cx="557.68" cy="332.91" r="13"/><ellipse class="cls-2" cx="280.71" cy="581.02" rx="10" ry="101" transform="translate(-340.79 754.56) rotate(-79.82)"/><circle class="cls-2" cx="281.21" cy="578.52" r="24.5"/><circle class="cls-2" cx="369.21" cy="560.52" r="6.5"/><ellipse class="cls-2" cx="391.21" cy="675.02" rx="8.5" ry="51"/><rect class="cls-2" x="242.21" y="476.52" width="26" height="26"/><path class="cls-2" d="M240.34,487.31c-6.47-3.79-14.41-7.66-21.07-4.21-5.71,3-8.67,10.63-15,11.57-5.22.77-9.69-3.51-13.14-7.5s-7.63-8.43-12.89-8.13c-3.42.2-6.36,2.41-8.85,4.76s-4.86,5-8,6.37-7.34,1.11-9.32-1.68"/><path class="cls-2" d="M248.54,671.17c-.29-5.34-.58-10.77.76-15.95s4.57-10.14,9.51-12.2c6.49-2.71,14,.19,19.81,4.09s11.18,8.9,17.89,11c2.69.84,5.83,1.11,8.13-.52a11.16,11.16,0,0,0,2.79-3.32,152.46,152.46,0,0,0,10.36-19.35c1.72-3.87,3.44-8,6.88-10.49,6.16-4.44,14.71-1.66,21.65,1.41s15.21,6.25,21.73,2.36c6.12-3.65,7.56-11.68,9-18.67s4.6-15,11.58-16.47c8-1.65,14.81,6.51,22.92,7.12a13.16,13.16,0,0,0,13.17-9.05c.67-2.21.72-4.56,1.18-6.83C428.2,573,442.46,566,452.83,571.06"/><circle class="cls-2" cx="334.21" cy="617.52" r="2.5"/><circle class="cls-2" cx="378.71" cy="600.02" r="3"/><circle class="cls-2" cx="411.21" cy="607.52" r="1.5"/><circle class="cls-2" cx="416.21" cy="577.52" r="3.5"/><circle class="cls-2" cx="438.21" cy="566.52" r="2.5"/><circle class="cls-2" cx="441.21" cy="583.52" r="2.5"/><line class="cls-2" x1="287.71" y1="539.02" x2="356.21" y2="470.52"/><line class="cls-2" x1="315.71" y1="546.02" x2="385.71" y2="476.02"/><line class="cls-2" x1="334.71" y1="554.02" x2="374.71" y2="514.02"/><line class="cls-2" x1="310.71" y1="529.02" x2="351.21" y2="488.52"/><line class="cls-2" x1="317.71" y1="560.02" x2="338.21" y2="539.52"/><line class="cls-2" x1="160.71" y1="645.02" x2="238.21" y2="567.52"/><line class="cls-2" x1="165.71" y1="671.02" x2="222.21" y2="614.52"/><line class="cls-2" x1="193.71" y1="664.02" x2="233.21" y2="624.52"/><line class="cls-2" x1="245.71" y1="609.02" x2="258.21" y2="596.52"/><line class="cls-2" x1="163.71" y1="577.02" x2="163.71" y2="527.02"/><line class="cls-2" x1="179.71" y1="527.02" x2="245.71" y2="527.02"/><line class="cls-2" x1="167.71" y1="511.02" x2="207.71" y2="511.02"/><line class="cls-2" x1="230.71" y1="509.02" x2="270.71" y2="509.02"/><line class="cls-2" x1="215.71" y1="519.02" x2="245.71" y2="519.02"/><circle class="cls-2" cx="409.21" cy="522.52" r="3.5"/><circle class="cls-2" cx="196.71" cy="546.02" r="3"/><circle class="cls-2" cx="165.71" cy="594.02" r="2"/><circle class="cls-2" cx="169.71" cy="611.02" r="2"/><circle class="cls-2" cx="181.71" cy="562.02" r="2"/><circle class="cls-2" cx="227.71" cy="549.02" r="3"/><circle class="cls-2" cx="205.71" cy="571.02" r="2"/><circle class="cls-2" cx="281.71" cy="515.02" r="4"/><circle class="cls-2" cx="269.21" cy="535.52" r="1.5"/><circle class="cls-2" cx="288.71" cy="482.02" r="3"/><circle class="cls-2" cx="307.21" cy="492.52" r="2.5"/><circle class="cls-2" cx="262.71" cy="623.02" r="6"/><circle class="cls-2" cx="287.21" cy="624.52" r="1.5"/><circle class="cls-2" cx="348.21" cy="594.52" r="2.5"/><circle class="cls-2" cx="310.21" cy="611.52" r="2.5"/><circle class="cls-2" cx="324.21" cy="591.52" r="2.5"/><circle class="cls-2" cx="410.71" cy="627.02" r="1"/><circle class="cls-2" cx="407.71" cy="524.02" r="19"/><circle class="cls-2" cx="410.71" cy="521.02" r="12.5"/><circle class="cls-2" cx="423.71" cy="496.02" r="3.5"/><circle class="cls-2" cx="446.71" cy="530.02" r="3"/><circle class="cls-2" cx="427.71" cy="553.02" r="1"/><line class="cls-2" x1="391.71" y1="492.02" x2="416.71" y2="492.02"/><line class="cls-2" x1="407.71" y1="476.02" x2="438.71" y2="476.02"/><line class="cls-2" x1="394.21" y1="495.52" x2="441.21" y2="495.52"/><line class="cls-2" x1="453.21" y1="479.52" x2="453.21" y2="510.52"/><circle class="cls-2" cx="255.21" cy="489.52" r="13"/><ellipse class="cls-2" cx="-21.76" cy="424.41" rx="10" ry="101" transform="translate(-435.64 327.95) rotate(-79.82)"/><circle class="cls-2" cx="-21.26" cy="421.91" r="24.5"/><circle class="cls-2" cx="66.74" cy="403.91" r="6.5"/><ellipse class="cls-2" cx="88.74" cy="518.41" rx="8.5" ry="51"/><ellipse class="cls-2" cx="91.24" cy="518.91" rx="51" ry="8.5" transform="matrix(0.84, -0.54, 0.54, 0.84, -263.81, 129.63)"/><ellipse class="cls-2" cx="91.24" cy="521.91" rx="8.5" ry="51" transform="translate(-367.6 256.98) rotate(-50.08)"/><circle class="cls-2" cx="90.24" cy="519.41" r="4.5"/><path class="cls-2" d="M-53.93,514.57c-.29-5.34-.58-10.77.76-15.95s4.57-10.14,9.51-12.2c6.49-2.71,14,.19,19.81,4.09s11.18,8.9,17.89,11c2.69.84,5.83,1.11,8.13-.52A11.16,11.16,0,0,0,5,497.68a152.46,152.46,0,0,0,10.36-19.35c1.72-3.87,3.44-8,6.88-10.49,6.16-4.44,14.71-1.66,21.65,1.41s15.21,6.25,21.73,2.36c6.12-3.65,7.56-11.68,9-18.67s4.6-15,11.58-16.47c8-1.65,14.81,6.51,22.92,7.12a13.16,13.16,0,0,0,13.17-9.05c.67-2.21.72-4.56,1.18-6.83,2.32-11.31,16.58-18.31,26.95-13.25"/><circle class="cls-2" cx="7.74" cy="484.91" r="2.5" transform="translate(-475 438.31) rotate(-83.57)"/><circle class="cls-2" cx="31.74" cy="460.91" r="2.5"/><circle class="cls-2" cx="51.74" cy="479.91" r="3.5"/><circle class="cls-2" cx="76.24" cy="443.41" r="3"/><circle class="cls-2" cx="108.74" cy="450.91" r="1.5"/><circle class="cls-2" cx="113.74" cy="420.91" r="3.5"/><circle class="cls-2" cx="135.74" cy="409.91" r="2.5"/><circle class="cls-2" cx="138.74" cy="426.91" r="2.5"/><line class="cls-2" x1="-14.76" y1="382.41" x2="53.74" y2="313.91"/><line class="cls-2" x1="13.24" y1="389.41" x2="83.24" y2="319.41"/><line class="cls-2" x1="32.24" y1="397.41" x2="72.24" y2="357.41"/><line class="cls-2" x1="8.24" y1="372.41" x2="48.74" y2="331.91"/><line class="cls-2" x1="15.24" y1="403.41" x2="35.74" y2="382.91"/><line class="cls-2" x1="-40.76" y1="523.41" x2="24.74" y2="588.91"/><line class="cls-2" x1="-21.76" y1="514.41" x2="26.24" y2="562.41"/><line class="cls-2" x1="5.24" y1="523.41" x2="17.74" y2="535.91"/><line class="cls-2" x1="19.24" y1="507.41" x2="37.74" y2="525.91"/><line class="cls-2" x1="141.24" y1="500.41" x2="141.24" y2="599.41"/><line class="cls-2" x1="129.24" y1="562.41" x2="129.24" y2="604.41"/><line class="cls-2" x1="109.24" y1="573.41" x2="109.24" y2="611.41"/><line class="cls-2" x1="100.24" y1="589.41" x2="100.24" y2="611.41"/><line class="cls-2" x1="80.24" y1="596.41" x2="80.24" y2="614.41"/><line class="cls-2" x1="67.24" y1="573.41" x2="67.24" y2="614.41"/><circle class="cls-2" cx="106.74" cy="365.91" r="3.5"/><circle class="cls-2" cx="4.74" cy="335.91" r="2.5"/><circle class="cls-2" cx="8.74" cy="599.91" r="0.5"/><circle class="cls-2" cx="43.24" cy="551.41" r="2"/><circle class="cls-2" cx="53.74" cy="527.91" r="1.5"/><circle class="cls-2" cx="49.24" cy="578.41" r="1"/><circle class="cls-2" cx="83.24" cy="576.41" r="3"/><circle class="cls-2" cx="27.24" cy="607.41" r="2"/><circle class="cls-2" cx="45.74" cy="437.91" r="2.5"/><circle class="cls-2" cx="7.74" cy="454.91" r="2.5"/><circle class="cls-2" cx="21.74" cy="434.91" r="2.5"/><circle class="cls-2" cx="108.24" cy="470.41" r="1"/><circle class="cls-2" cx="106.24" cy="486.41" r="3"/><circle class="cls-2" cx="131.24" cy="530.41" r="2"/><circle class="cls-2" cx="105.24" cy="367.41" r="19"/><circle class="cls-2" cx="108.24" cy="364.41" r="12.5"/><circle class="cls-2" cx="121.24" cy="339.41" r="3.5"/><circle class="cls-2" cx="144.24" cy="373.41" r="3"/><circle class="cls-2" cx="125.24" cy="396.41" r="1"/><line class="cls-2" x1="89.24" y1="335.41" x2="114.24" y2="335.41"/><line class="cls-2" x1="105.24" y1="319.41" x2="136.24" y2="319.41"/><line class="cls-2" x1="91.74" y1="338.91" x2="138.74" y2="338.91"/><line class="cls-2" x1="150.74" y1="322.91" x2="150.74" y2="353.91"/><ellipse class="cls-2" cx="583.18" cy="111.21" rx="10" ry="101" transform="translate(370.6 665.53) rotate(-79.82)"/><circle class="cls-2" cx="583.68" cy="108.71" r="24.5"/><path class="cls-2" d="M537.19,257.95l-9.28-18.11v20.32s-25.18,8-24.74,10.6c.32,1.91,17.34,1.76,27.68,1,1.27,5.19,4.11,14.76,7.66,14.43s2-10.12.88-15.84c4.69-1.71,23.52-6.15,24.74-10.22C565.46,255.74,537.19,257.95,537.19,257.95Z"/><rect class="cls-2" x="544.68" y="6.71" width="26" height="26"/><path class="cls-2" d="M542.81,17.5c-6.47-3.79-14.41-7.66-21.07-4.21-5.71,3-8.67,10.63-15,11.57-5.22.77-9.69-3.51-13.14-7.5s-7.63-8.43-12.89-8.13c-3.42.2-6.36,2.41-8.85,4.76s-4.86,5-8,6.37-7.34,1.11-9.32-1.68"/><path class="cls-2" d="M551,201.36c-.29-5.34-.58-10.77.76-15.95s4.57-10.14,9.51-12.2c6.49-2.71,14,.19,19.81,4.09s11.18,8.9,17.89,11c2.69.84,5.83,1.11,8.13-.52a11.16,11.16,0,0,0,2.79-3.32,152.46,152.46,0,0,0,10.36-19.35c1.72-3.87,3.44-8,6.88-10.49,6.16-4.44,14.71-1.66,21.65,1.41s15.21,6.25,21.73,2.36c6.12-3.65,7.56-11.68,9-18.67s4.6-15,11.58-16.47c8-1.65,14.81,6.51,22.92,7.12a13.16,13.16,0,0,0,13.17-9.05c.67-2.21.72-4.56,1.18-6.83,2.32-11.31,16.58-18.31,26.95-13.25"/><circle class="cls-2" cx="545.68" cy="184.71" r="2.5"/><circle class="cls-2" cx="573.18" cy="166.21" r="3"/><circle class="cls-2" cx="566.68" cy="184.71" r="2.5"/><line class="cls-2" x1="590.18" y1="69.21" x2="658.68" y2="0.71"/><line class="cls-2" x1="463.18" y1="175.21" x2="540.68" y2="97.71"/><line class="cls-2" x1="468.18" y1="201.21" x2="524.68" y2="144.71"/><line class="cls-2" x1="496.18" y1="194.21" x2="535.68" y2="154.71"/><line class="cls-2" x1="548.18" y1="139.21" x2="560.68" y2="126.71"/><line class="cls-2" x1="564.18" y1="210.21" x2="629.68" y2="275.71"/><line class="cls-2" x1="583.18" y1="201.21" x2="631.18" y2="249.21"/><line class="cls-2" x1="470.18" y1="232.21" x2="470.18" y2="280.21"/><line class="cls-2" x1="482.18" y1="301.21" x2="546.18" y2="301.21"/><line class="cls-2" x1="488.18" y1="253.21" x2="488.18" y2="283.21"/><line class="cls-2" x1="506.18" y1="291.21" x2="530.18" y2="291.21"/><line class="cls-2" x1="466.18" y1="107.21" x2="466.18" y2="57.21"/><line class="cls-2" x1="482.18" y1="57.21" x2="548.18" y2="57.21"/><line class="cls-2" x1="470.18" y1="41.21" x2="510.18" y2="41.21"/><line class="cls-2" x1="533.18" y1="39.21" x2="573.18" y2="39.21"/><line class="cls-2" x1="518.18" y1="49.21" x2="548.18" y2="49.21"/><circle class="cls-2" cx="499.18" cy="76.21" r="3"/><circle class="cls-2" cx="468.18" cy="124.21" r="2"/><circle class="cls-2" cx="472.18" cy="141.21" r="2"/><circle class="cls-2" cx="484.18" cy="92.21" r="2"/><circle class="cls-2" cx="530.18" cy="79.21" r="3"/><circle class="cls-2" cx="508.18" cy="101.21" r="2"/><circle class="cls-2" cx="584.18" cy="45.21" r="4"/><circle class="cls-2" cx="571.68" cy="65.71" r="1.5"/><circle class="cls-2" cx="591.18" cy="12.21" r="3"/><circle class="cls-2" cx="565.18" cy="153.21" r="6"/><circle class="cls-2" cx="589.68" cy="154.71" r="1.5"/><circle class="cls-2" cx="526.18" cy="207.21" r="4"/><circle class="cls-2" cx="484.68" cy="213.71" r="2.5"/><circle class="cls-2" cx="500.18" cy="234.21" r="2"/><circle class="cls-2" cx="509.18" cy="214.21" r="1"/><circle class="cls-2" cx="543.68" cy="239.71" r="3.5"/><circle class="cls-2" cx="586.18" cy="278.21" r="2"/><circle class="cls-2" cx="592.18" cy="262.21" r="2"/><circle class="cls-2" cx="573.18" cy="251.21" r="2"/><circle class="cls-2" cx="594.18" cy="307.21" r="6"/><circle class="cls-2" cx="557.68" cy="19.71" r="13"/><ellipse class="cls-2" cx="280.71" cy="267.81" rx="10" ry="101" transform="translate(-32.52 496.74) rotate(-79.82)"/><circle class="cls-2" cx="281.21" cy="265.31" r="24.5"/><circle class="cls-2" cx="369.21" cy="247.31" r="6.5"/><path class="cls-2" d="M234.71,414.55l-9.28-18.11v20.32s-25.18,8-24.74,10.6c.32,1.91,17.34,1.76,27.68,1,1.27,5.19,4.11,14.76,7.66,14.43s2-10.12.88-15.84c4.69-1.71,23.52-6.15,24.74-10.22C263,412.34,234.71,414.55,234.71,414.55Z"/><ellipse class="cls-2" cx="391.21" cy="361.81" rx="8.5" ry="51"/><ellipse class="cls-2" cx="393.71" cy="362.31" rx="51" ry="8.5" transform="matrix(0.84, -0.54, 0.54, 0.84, -132.84, 267.31)"/><ellipse class="cls-2" cx="393.71" cy="365.31" rx="8.5" ry="51" transform="translate(-139.11 432.85) rotate(-50.08)"/><circle class="cls-2" cx="392.71" cy="362.81" r="4.5"/><rect class="cls-2" x="242.21" y="163.31" width="26" height="26"/><path class="cls-2" d="M240.34,174.1c-6.47-3.79-14.41-7.66-21.07-4.21-5.71,3-8.67,10.63-15,11.57-5.22.77-9.69-3.51-13.14-7.5s-7.63-8.43-12.89-8.13c-3.42.2-6.36,2.41-8.85,4.76s-4.86,5-8,6.37-7.34,1.11-9.32-1.68"/><path class="cls-2" d="M248.54,358c-.29-5.34-.58-10.77.76-15.95s4.57-10.14,9.51-12.2c6.49-2.71,14,.19,19.81,4.09s11.18,8.9,17.89,11c2.69.84,5.83,1.11,8.13-.52a11.16,11.16,0,0,0,2.79-3.32,152.46,152.46,0,0,0,10.36-19.35c1.72-3.87,3.44-8,6.88-10.49,6.16-4.44,14.71-1.66,21.65,1.41s15.21,6.25,21.73,2.36c6.12-3.65,7.56-11.68,9-18.67s4.6-15,11.58-16.47c8-1.65,14.81,6.51,22.92,7.12a13.16,13.16,0,0,0,13.17-9.05c.67-2.21.72-4.56,1.18-6.83,2.32-11.31,16.58-18.31,26.95-13.25"/><circle class="cls-2" cx="243.21" cy="341.31" r="2.5"/><circle class="cls-2" cx="270.71" cy="322.81" r="3"/><circle class="cls-2" cx="264.21" cy="341.31" r="2.5"/><circle class="cls-2" cx="310.21" cy="328.31" r="2.5" transform="translate(-50.77 599.81) rotate(-83.57)"/><circle class="cls-2" cx="334.21" cy="304.31" r="2.5"/><circle class="cls-2" cx="354.21" cy="323.31" r="3.5"/><circle class="cls-2" cx="378.71" cy="286.81" r="3"/><circle class="cls-2" cx="411.21" cy="294.31" r="1.5"/><circle class="cls-2" cx="416.21" cy="264.31" r="3.5"/><circle class="cls-2" cx="438.21" cy="253.31" r="2.5"/><circle class="cls-2" cx="441.21" cy="270.31" r="2.5"/><line class="cls-2" x1="287.71" y1="225.81" x2="356.21" y2="157.31"/><line class="cls-2" x1="315.71" y1="232.81" x2="385.71" y2="162.81"/><line class="cls-2" x1="334.71" y1="240.81" x2="374.71" y2="200.81"/><line class="cls-2" x1="310.71" y1="215.81" x2="351.21" y2="175.31"/><line class="cls-2" x1="317.71" y1="246.81" x2="338.21" y2="226.31"/><line class="cls-2" x1="160.71" y1="331.81" x2="238.21" y2="254.31"/><line class="cls-2" x1="165.71" y1="357.81" x2="222.21" y2="301.31"/><line class="cls-2" x1="193.71" y1="350.81" x2="233.21" y2="311.31"/><line class="cls-2" x1="245.71" y1="295.81" x2="258.21" y2="283.31"/><line class="cls-2" x1="261.71" y1="366.81" x2="327.21" y2="432.31"/><line class="cls-2" x1="280.71" y1="357.81" x2="328.71" y2="405.81"/><line class="cls-2" x1="307.71" y1="366.81" x2="320.21" y2="379.31"/><line class="cls-2" x1="321.71" y1="350.81" x2="340.21" y2="369.31"/><line class="cls-2" x1="167.71" y1="388.81" x2="167.71" y2="436.81"/><line class="cls-2" x1="179.71" y1="457.81" x2="243.71" y2="457.81"/><line class="cls-2" x1="185.71" y1="409.81" x2="185.71" y2="439.81"/><line class="cls-2" x1="203.71" y1="447.81" x2="227.71" y2="447.81"/><line class="cls-2" x1="163.71" y1="263.81" x2="163.71" y2="213.81"/><line class="cls-2" x1="179.71" y1="213.81" x2="245.71" y2="213.81"/><line class="cls-2" x1="167.71" y1="197.81" x2="207.71" y2="197.81"/><line class="cls-2" x1="230.71" y1="195.81" x2="270.71" y2="195.81"/><line class="cls-2" x1="215.71" y1="205.81" x2="245.71" y2="205.81"/><line class="cls-2" x1="443.71" y1="343.81" x2="443.71" y2="442.81"/><line class="cls-2" x1="431.71" y1="405.81" x2="431.71" y2="447.81"/><line class="cls-2" x1="411.71" y1="416.81" x2="411.71" y2="454.81"/><line class="cls-2" x1="402.71" y1="432.81" x2="402.71" y2="454.81"/><line class="cls-2" x1="382.71" y1="439.81" x2="382.71" y2="457.81"/><line class="cls-2" x1="369.71" y1="416.81" x2="369.71" y2="457.81"/><circle class="cls-2" cx="409.21" cy="209.31" r="3.5"/><circle class="cls-2" cx="196.71" cy="232.81" r="3"/><circle class="cls-2" cx="165.71" cy="280.81" r="2"/><circle class="cls-2" cx="169.71" cy="297.81" r="2"/><circle class="cls-2" cx="181.71" cy="248.81" r="2"/><circle class="cls-2" cx="227.71" cy="235.81" r="3"/><circle class="cls-2" cx="205.71" cy="257.81" r="2"/><circle class="cls-2" cx="281.71" cy="201.81" r="4"/><circle class="cls-2" cx="269.21" cy="222.31" r="1.5"/><circle class="cls-2" cx="288.71" cy="168.81" r="3"/><circle class="cls-2" cx="307.21" cy="179.31" r="2.5"/><circle class="cls-2" cx="262.71" cy="309.81" r="6"/><circle class="cls-2" cx="287.21" cy="311.31" r="1.5"/><circle class="cls-2" cx="223.71" cy="363.81" r="4"/><circle class="cls-2" cx="182.21" cy="370.31" r="2.5"/><circle class="cls-2" cx="197.71" cy="390.81" r="2"/><circle class="cls-2" cx="206.71" cy="370.81" r="1"/><circle class="cls-2" cx="241.21" cy="396.31" r="3.5"/><circle class="cls-2" cx="283.71" cy="434.81" r="2"/><circle class="cls-2" cx="289.71" cy="418.81" r="2"/><circle class="cls-2" cx="311.21" cy="443.31" r="0.5"/><circle class="cls-2" cx="270.71" cy="407.81" r="2"/><circle class="cls-2" cx="345.71" cy="394.81" r="2"/><circle class="cls-2" cx="356.21" cy="371.31" r="1.5"/><circle class="cls-2" cx="351.71" cy="421.81" r="1"/><circle class="cls-2" cx="385.71" cy="419.81" r="3"/><circle class="cls-2" cx="329.71" cy="450.81" r="2"/><circle class="cls-2" cx="291.71" cy="463.81" r="6"/><circle class="cls-2" cx="348.21" cy="281.31" r="2.5"/><circle class="cls-2" cx="310.21" cy="298.31" r="2.5"/><circle class="cls-2" cx="324.21" cy="278.31" r="2.5"/><circle class="cls-2" cx="410.71" cy="313.81" r="1"/><circle class="cls-2" cx="408.71" cy="329.81" r="3"/><circle class="cls-2" cx="433.71" cy="373.81" r="2"/><circle class="cls-2" cx="407.71" cy="210.81" r="19"/><circle class="cls-2" cx="410.71" cy="207.81" r="12.5"/><circle class="cls-2" cx="423.71" cy="182.81" r="3.5"/><circle class="cls-2" cx="446.71" cy="216.81" r="3"/><circle class="cls-2" cx="427.71" cy="239.81" r="1"/><line class="cls-2" x1="391.71" y1="178.81" x2="416.71" y2="178.81"/><line class="cls-2" x1="407.71" y1="162.81" x2="438.71" y2="162.81"/><line class="cls-2" x1="394.21" y1="182.31" x2="441.21" y2="182.31"/><line class="cls-2" x1="453.21" y1="166.31" x2="453.21" y2="197.31"/><circle class="cls-2" cx="255.21" cy="176.31" r="13"/><ellipse class="cls-2" cx="-21.76" cy="111.21" rx="10" ry="101" transform="translate(-127.37 70.12) rotate(-79.82)"/><circle class="cls-2" cx="-21.26" cy="108.71" r="24.5"/><circle class="cls-2" cx="66.74" cy="90.71" r="6.5"/><ellipse class="cls-2" cx="88.74" cy="205.21" rx="8.5" ry="51"/><ellipse class="cls-2" cx="91.24" cy="205.71" rx="51" ry="8.5" transform="matrix(0.84, -0.54, 0.54, 0.84, -96.01, 80.89)"/><ellipse class="cls-2" cx="91.24" cy="208.71" rx="8.5" ry="51" transform="translate(-127.38 144.76) rotate(-50.08)"/><circle class="cls-2" cx="90.24" cy="206.21" r="4.5"/><path class="cls-2" d="M-53.93,201.36c-.29-5.34-.58-10.77.76-15.95s4.57-10.14,9.51-12.2c6.49-2.71,14,.19,19.81,4.09s11.18,8.9,17.89,11c2.69.84,5.83,1.11,8.13-.52A11.16,11.16,0,0,0,5,184.47a152.46,152.46,0,0,0,10.36-19.35c1.72-3.87,3.44-8,6.88-10.49C28.35,150.19,36.9,153,43.85,156s15.21,6.25,21.73,2.36c6.12-3.65,7.56-11.68,9-18.67s4.6-15,11.58-16.47c8-1.65,14.81,6.51,22.92,7.12a13.16,13.16,0,0,0,13.17-9.05c.67-2.21.72-4.56,1.18-6.83,2.32-11.31,16.58-18.31,26.95-13.25"/><circle class="cls-2" cx="7.74" cy="171.71" r="2.5" transform="translate(-163.76 160.17) rotate(-83.57)"/><circle class="cls-2" cx="31.74" cy="147.71" r="2.5"/><circle class="cls-2" cx="51.74" cy="166.71" r="3.5"/><circle class="cls-2" cx="76.24" cy="130.21" r="3"/><circle class="cls-2" cx="108.74" cy="137.71" r="1.5"/><circle class="cls-2" cx="113.74" cy="107.71" r="3.5"/><circle class="cls-2" cx="135.74" cy="96.71" r="2.5"/><circle class="cls-2" cx="138.74" cy="113.71" r="2.5"/><line class="cls-2" x1="-14.76" y1="69.21" x2="53.74" y2="0.71"/><line class="cls-2" x1="13.24" y1="76.21" x2="83.24" y2="6.21"/><line class="cls-2" x1="32.24" y1="84.21" x2="72.24" y2="44.21"/><line class="cls-2" x1="8.24" y1="59.21" x2="48.74" y2="18.71"/><line class="cls-2" x1="15.24" y1="90.21" x2="35.74" y2="69.71"/><line class="cls-2" x1="-40.76" y1="210.21" x2="24.74" y2="275.71"/><line class="cls-2" x1="-21.76" y1="201.21" x2="26.24" y2="249.21"/><line class="cls-2" x1="5.24" y1="210.21" x2="17.74" y2="222.71"/><line class="cls-2" x1="19.24" y1="194.21" x2="37.74" y2="212.71"/><line class="cls-2" x1="141.24" y1="187.21" x2="141.24" y2="286.21"/><line class="cls-2" x1="129.24" y1="249.21" x2="129.24" y2="291.21"/><line class="cls-2" x1="109.24" y1="260.21" x2="109.24" y2="298.21"/><line class="cls-2" x1="100.24" y1="276.21" x2="100.24" y2="298.21"/><line class="cls-2" x1="80.24" y1="283.21" x2="80.24" y2="301.21"/><line class="cls-2" x1="67.24" y1="260.21" x2="67.24" y2="301.21"/><circle class="cls-2" cx="106.74" cy="52.71" r="3.5"/><circle class="cls-2" cx="4.74" cy="22.71" r="2.5"/><circle class="cls-2" cx="8.74" cy="286.71" r="0.5"/><circle class="cls-2" cx="43.24" cy="238.21" r="2"/><circle class="cls-2" cx="53.74" cy="214.71" r="1.5"/><circle class="cls-2" cx="49.24" cy="265.21" r="1"/><circle class="cls-2" cx="83.24" cy="263.21" r="3"/><circle class="cls-2" cx="27.24" cy="294.21" r="2"/><circle class="cls-2" cx="45.74" cy="124.71" r="2.5"/><circle class="cls-2" cx="7.74" cy="141.71" r="2.5"/><circle class="cls-2" cx="21.74" cy="121.71" r="2.5"/><circle class="cls-2" cx="108.24" cy="157.21" r="1"/><circle class="cls-2" cx="106.24" cy="173.21" r="3"/><circle class="cls-2" cx="131.24" cy="217.21" r="2"/><circle class="cls-2" cx="105.24" cy="54.21" r="19"/><circle class="cls-2" cx="108.24" cy="51.21" r="12.5"/><circle class="cls-2" cx="121.24" cy="26.21" r="3.5"/><circle class="cls-2" cx="144.24" cy="60.21" r="3"/><circle class="cls-2" cx="125.24" cy="83.21" r="1"/><line class="cls-2" x1="89.24" y1="22.21" x2="114.24" y2="22.21"/><line class="cls-2" x1="105.24" y1="6.21" x2="136.24" y2="6.21"/><line class="cls-2" x1="91.74" y1="25.71" x2="138.74" y2="25.71"/><line class="cls-2" x1="150.74" y1="9.71" x2="150.74" y2="40.71"/><circle class="cls-2" cx="594.18" cy="-6" r="6"/><path class="cls-2" d="M234.71,101.34l-9.28-18.11v20.32s-25.18,8-24.74,10.6c.32,1.91,17.34,1.76,27.68,1,1.27,5.19,4.11,14.76,7.66,14.43s2-10.12.88-15.84c4.69-1.71,23.52-6.15,24.74-10.22C263,99.13,234.71,101.34,234.71,101.34Z"/><ellipse class="cls-2" cx="391.21" cy="48.6" rx="8.5" ry="51"/><ellipse class="cls-2" cx="393.71" cy="49.1" rx="51" ry="8.5" transform="matrix(0.84, -0.54, 0.54, 0.84, 34.96, 218.57)"/><ellipse class="cls-2" cx="393.71" cy="52.1" rx="8.5" ry="51" transform="translate(101.11 320.63) rotate(-50.08)"/><circle class="cls-2" cx="392.71" cy="49.6" r="4.5"/><path class="cls-2" d="M248.54,44.76c-.29-5.34-.58-10.77.76-15.95s4.57-10.14,9.51-12.2c6.49-2.71,14,.19,19.81,4.09s11.18,8.9,17.89,11c2.69.84,5.83,1.11,8.13-.52a11.16,11.16,0,0,0,2.79-3.32A152.46,152.46,0,0,0,317.78,8.51c1.72-3.87,3.44-8,6.88-10.49,6.16-4.44,14.71-1.66,21.65,1.41s15.21,6.25,21.73,2.36c6.12-3.65,7.56-11.68,9-18.67s4.6-15,11.58-16.47c8-1.65,14.81,6.51,22.92,7.12a13.16,13.16,0,0,0,13.17-9.05c.67-2.21.72-4.56,1.18-6.83,2.32-11.31,16.58-18.31,26.95-13.25"/><circle class="cls-2" cx="243.21" cy="28.1" r="2.5"/><circle class="cls-2" cx="270.71" cy="9.6" r="3"/><circle class="cls-2" cx="264.21" cy="28.1" r="2.5"/><circle class="cls-2" cx="310.21" cy="15.1" r="2.5" transform="translate(260.47 321.67) rotate(-83.57)"/><circle class="cls-2" cx="354.21" cy="10.1" r="3.5"/><line class="cls-2" x1="160.71" y1="18.6" x2="238.21" y2="-58.9"/><line class="cls-2" x1="165.71" y1="44.6" x2="222.21" y2="-11.9"/><line class="cls-2" x1="193.71" y1="37.6" x2="233.21" y2="-1.9"/><line class="cls-2" x1="261.71" y1="53.6" x2="327.21" y2="119.1"/><line class="cls-2" x1="280.71" y1="44.6" x2="328.71" y2="92.6"/><line class="cls-2" x1="307.71" y1="53.6" x2="320.21" y2="66.1"/><line class="cls-2" x1="321.71" y1="37.6" x2="340.21" y2="56.1"/><line class="cls-2" x1="167.71" y1="75.6" x2="167.71" y2="123.6"/><line class="cls-2" x1="179.71" y1="144.6" x2="243.71" y2="144.6"/><line class="cls-2" x1="185.71" y1="96.6" x2="185.71" y2="126.6"/><line class="cls-2" x1="203.71" y1="134.6" x2="227.71" y2="134.6"/><line class="cls-2" x1="443.71" y1="30.6" x2="443.71" y2="129.6"/><line class="cls-2" x1="431.71" y1="92.6" x2="431.71" y2="134.6"/><line class="cls-2" x1="411.71" y1="103.6" x2="411.71" y2="141.6"/><line class="cls-2" x1="402.71" y1="119.6" x2="402.71" y2="141.6"/><line class="cls-2" x1="382.71" y1="126.6" x2="382.71" y2="144.6"/><line class="cls-2" x1="369.71" y1="103.6" x2="369.71" y2="144.6"/><circle class="cls-2" cx="262.71" cy="-3.4" r="6"/><circle class="cls-2" cx="223.71" cy="50.6" r="4"/><circle class="cls-2" cx="182.21" cy="57.1" r="2.5"/><circle class="cls-2" cx="197.71" cy="77.6" r="2"/><circle class="cls-2" cx="206.71" cy="57.6" r="1"/><circle class="cls-2" cx="241.21" cy="83.1" r="3.5"/><circle class="cls-2" cx="283.71" cy="121.6" r="2"/><circle class="cls-2" cx="289.71" cy="105.6" r="2"/><circle class="cls-2" cx="311.21" cy="130.1" r="0.5"/><circle class="cls-2" cx="270.71" cy="94.6" r="2"/><circle class="cls-2" cx="345.71" cy="81.6" r="2"/><circle class="cls-2" cx="356.21" cy="58.1" r="1.5"/><circle class="cls-2" cx="351.71" cy="108.6" r="1"/><circle class="cls-2" cx="385.71" cy="106.6" r="3"/><circle class="cls-2" cx="329.71" cy="137.6" r="2"/><circle class="cls-2" cx="291.71" cy="150.6" r="6"/><circle class="cls-2" cx="410.71" cy="0.6" r="1"/><circle class="cls-2" cx="408.71" cy="16.6" r="3"/><circle class="cls-2" cx="433.71" cy="60.6" r="2"/></pattern></defs><title>pros</title><g class="cls-3"><g id="Color_bck"><rect class="cls-4" x="1" width="1919" height="1079"/></g><g id="Pattern" class="cls-5"><rect class="cls-6" x="1" width="1919" height="1086"/></g><g id="Color_pattern"><rect class="cls-7" width="1920" height="1086"/></g></g></svg>