<?xml version="1.0" encoding="utf-8"?>
<!-- Generator: Adobe Illustrator 21.0.2, SVG Export Plug-In . SVG Version: 6.00 Build 0)  -->
<svg version="1.1" id="Layer_1" xmlns="http://www.w3.org/2000/svg" xmlns:xlink="http://www.w3.org/1999/xlink" x="0px" y="0px"
	 viewBox="0 0 512 512" style="enable-background:new 0 0 512 512;" xml:space="preserve">
<style type="text/css">
	.st0{fill:#A29BB0;}
	.st1{fill:#36343B;}
	.st2{fill:#97ABA7;}
	.st3{fill:#9E776C;}
	.st4{fill:none;stroke:#333333;stroke-width:15;stroke-linejoin:round;stroke-miterlimit:10;}
	.st5{fill:#E9E4F3;}
	.st6{fill:#6C6875;}
	.st7{fill:#513730;}
</style>
<polygon class="st0" points="358.1,123.9 288.8,138.4 138.6,169.9 70.7,184.2 79.4,225.9 105.2,236.1 124.1,216.5 150.2,211.1 
	298.2,180 366.9,165.6 376.9,143.7 "/>
<polygon class="st1" points="149.8,199.7 77.1,214.9 79.4,225.9 105.2,236.1 124.1,216.5 150.2,211.1 298.2,180 366.9,165.6 
	372.7,153 315.1,165 "/>
<g>
	<path class="st2" d="M309.8,244.2c-4.1,0-7.8-2.8-8.7-7l-22.9-105.9c-1-4.8,2-9.5,6.8-10.6c4.8-1,9.5,2,10.6,6.8l22.9,105.9
		c1,4.8-2,9.5-6.8,10.6C311,244.2,310.4,244.2,309.8,244.2z"/>
	<path class="st2" d="M158.1,250.6c-4,0-7.7-2.8-8.6-6.8l-19.4-82c-1.1-4.8,1.8-9.6,6.6-10.7c4.8-1.1,9.6,1.8,10.7,6.6l19.4,82
		c1.1,4.8-1.8,9.6-6.6,10.7C159.5,250.5,158.8,250.6,158.1,250.6z"/>
</g>
<polygon class="st3" points="455.7,259.9 79.4,259.9 79.4,225.9 124.1,216.5 151.8,216.5 306.4,216.5 388.1,216.5 "/>
<path class="st2" d="M502,285.3l-24.3-16.4H62.9c-14.4,0-28.3,2.9-41.5,8.5L7,283.5l-7-16.3l14.4-6.2c15.4-6.6,31.7-10,48.5-10
	h417.6c1.8,0,3.5,0.5,5,1.5l26.5,18L502,285.3z"/>
<line class="st4" x1="484.9" y1="340.1" x2="485.5" y2="339.5"/>
<g>
	<path class="st5" d="M179.5,353.4c0-16.6-13.5-30.1-30.1-30.1c-16.6,0-30.1,13.5-30.1,30.1s13.5,30.1,30.1,30.1
		C166,383.5,179.5,370,179.5,353.4z"/>
	<path class="st5" d="M284.7,358.6c0-13.7-11.1-24.9-24.9-24.9c-13.7,0-24.8,11.1-24.8,24.9s11.1,24.9,24.8,24.9
		C273.5,383.5,284.7,372.4,284.7,358.6z"/>
	<path class="st5" d="M409.8,351.5c0-17.7-14.3-32-32-32c-17.7,0-32,14.3-32,32c0,17.7,14.3,32,32,32
		C395.5,383.5,409.8,369.2,409.8,351.5z"/>
	<path class="st5" d="M483.7,334.2c6-4.1,9.9-11,9.9-18.8c0-12.5-10.2-22.7-22.7-22.7c-12.5,0-22.7,10.2-22.7,22.7
		c0,12.5,10.2,22.7,22.7,22.7C475.6,338.1,480.1,336.7,483.7,334.2z"/>
	<path class="st5" d="M38.4,347.4c3,1.1,6.1,1.6,9.5,1.6c15.3,0,27.7-12.4,27.7-27.7c0-15.3-12.4-27.7-27.7-27.7
		c-15.3,0-27.7,12.4-27.7,27.7C20.2,333.3,27.7,343.5,38.4,347.4C38.4,347.4,38.4,347.4,38.4,347.4z"/>
</g>
<path class="st2" d="M483.7,334.2l-36.2,34.7c-9.7,9.3-22.7,14.6-36.2,14.6h-33.5c17.7,0,32-14.3,32-32s-14.3-32-32-32
	c-17.7,0-32,14.3-32,32c0,17.7,14.3,32,32,32h-118c13.7,0,24.9-11.1,24.9-24.9s-11.1-24.9-24.9-24.9c-13.7,0-24.8,11.1-24.8,24.9
	s11.1,24.9,24.8,24.9H149.4c16.6,0,30.1-13.5,30.1-30.1c0-16.6-13.5-30.1-30.1-30.1c-16.6,0-30.1,13.5-30.1,30.1
	s13.5,30.1,30.1,30.1h-22.3c-7.9,0-15.8-1.5-23.2-4.5l-65.5-31.6c3,1.1,6.1,1.6,9.5,1.6c15.3,0,27.7-12.4,27.7-27.7
	c0-15.3-12.4-27.7-27.7-27.7l423-0.8c-12.5,0-22.7,10.2-22.7,22.7c0,12.5,10.2,22.7,22.7,22.7C475.6,338.1,480.1,336.7,483.7,334.2z
	"/>
<g>
	<path class="st6" d="M149.4,392.7c-21.7,0-39.3-17.6-39.3-39.3c0-21.7,17.6-39.3,39.3-39.3c21.7,0,39.3,17.6,39.3,39.3
		C188.7,375.1,171.1,392.7,149.4,392.7z M149.4,332.6c-11.5,0-20.9,9.4-20.9,20.8c0,11.5,9.4,20.8,20.9,20.8
		c11.5,0,20.8-9.4,20.8-20.8C170.2,341.9,160.9,332.6,149.4,332.6z"/>
	<path class="st6" d="M259.8,392.7c-18.8,0-34.1-15.3-34.1-34.1s15.3-34.1,34.1-34.1c18.8,0,34.1,15.3,34.1,34.1
		S278.6,392.7,259.8,392.7z M259.8,343c-8.6,0-15.6,7-15.6,15.6c0,8.6,7,15.6,15.6,15.6c8.6,0,15.6-7,15.6-15.6S268.4,343,259.8,343
		z"/>
	<path class="st6" d="M377.8,392.7c-22.7,0-41.2-18.5-41.2-41.2c0-22.7,18.5-41.3,41.2-41.3c22.7,0,41.3,18.5,41.3,41.3
		C419.1,374.2,400.6,392.7,377.8,392.7z M377.8,328.7c-12.6,0-22.8,10.2-22.8,22.8c0,12.6,10.2,22.8,22.8,22.8
		c12.6,0,22.8-10.2,22.8-22.8C400.6,338.9,390.4,328.7,377.8,328.7z"/>
	<path class="st6" d="M470.9,347.4c-17.6,0-31.9-14.3-31.9-31.9s14.3-31.9,31.9-31.9c17.6,0,31.9,14.3,31.9,31.9
		c0,10.6-5.2,20.4-14,26.4C483.6,345.5,477.4,347.4,470.9,347.4z M470.9,302c-7.4,0-13.5,6-13.5,13.4c0,7.4,6,13.4,13.5,13.4
		c2.7,0,5.3-0.8,7.5-2.3c0,0,0,0,0,0c3.7-2.5,5.9-6.7,5.9-11.1C484.4,308,478.3,302,470.9,302z"/>
	<path class="st6" d="M47.9,358.3c-4.3,0-8.6-0.7-12.6-2.2c-0.1,0-0.2-0.1-0.2-0.1c-14.4-5.4-24.1-19.3-24.1-34.7
		c0-20.4,16.6-37,37-37c20.4,0,37,16.6,37,37C84.8,341.7,68.3,358.3,47.9,358.3z M41.7,338.8c2,0.7,4,1,6.2,1
		c10.2,0,18.5-8.3,18.5-18.5s-8.3-18.5-18.5-18.5s-18.5,8.3-18.5,18.5c0,7.7,4.8,14.7,12.1,17.3C41.5,338.7,41.6,338.7,41.7,338.8z"
		/>
	<path class="st6" d="M411.3,392.7H127.1c-9.1,0-18.1-1.8-26.6-5.2c-0.2-0.1-0.4-0.2-0.5-0.2l-65.2-31.4
		c-14.3-5.4-23.9-19.3-23.9-34.6c0-20.4,16.6-37,37-37l423-0.8c0,0,0,0,0,0c17.6,0,31.9,14.3,31.9,31.9c0,10.3-5,19.9-13.3,25.9
		l-35.7,34.3C442.4,386.7,427.2,392.7,411.3,392.7z M107.7,370.5c6.2,2.5,12.8,3.8,19.4,3.8h284.2c11.1,0,21.7-4.3,29.8-12
		l36.2-34.8c0.4-0.4,0.8-0.7,1.2-1c3.7-2.5,5.9-6.7,5.9-11.1c0-7.4-6-13.4-13.4-13.4l-423,0.8c-10.2,0-18.5,8.3-18.5,18.5
		c0,7.7,4.8,14.7,12,17.3c0.4,0.1,0.7,0.3,1.1,0.5L107.7,370.5z"/>
</g>
<path class="st7" d="M366.9,165.6l-8.8-41.8c31.8-6.7,64.6-6.1,96.1,1.6c-12.9,9.9-26.8,18.2-41.4,25
	C398.2,157.2,382.8,162.3,366.9,165.6z"/>
<path class="st3" d="M439.5,122.5c-9.3,6.1-19,11.5-29.1,16.2c-14.6,6.7-30,11.8-45.9,15.2l2.4,11.8c15.9-3.3,31.3-8.4,45.9-15.2
	c14.6-6.7,28.6-15.1,41.4-25C449.4,124.3,444.5,123.3,439.5,122.5z"/>
</svg>
