<?xml version="1.0" encoding="utf-8"?>
<!-- Generator: Adobe Illustrator 21.0.2, SVG Export Plug-In . SVG Version: 6.00 Build 0)  -->
<svg version="1.1" id="Layer_1" xmlns="http://www.w3.org/2000/svg" xmlns:xlink="http://www.w3.org/1999/xlink" x="0px" y="0px"
	 viewBox="0 0 512 512" style="enable-background:new 0 0 512 512;" xml:space="preserve">
<style type="text/css">
	.st0{fill:#FFFFFF;}
</style>
<title>Untitled-2</title>
<path class="st0" d="M105.5,351.1c33.3,3.1,63.3-5.2,90.5-25.7c-28.4-2.4-47.4-16.6-57.9-43.1c9.5,1.4,18.5,1.4,27.8-1.2
	c-14.7-3.4-26.6-10.7-35.7-22.1c-9.1-11.4-13.6-24.4-13.6-39.5c8.7,4.5,17.5,7.2,27.8,7.6c-13.5-9.8-22.2-22.1-25.7-37.8
	c-3.5-15.7-1.2-30.5,6.7-44.7c33.5,39.5,75.9,61.2,127.7,64.7c-0.4-3.8-0.9-7.4-1.1-10.9c-0.9-13.8,2.4-26.7,10.4-38
	c14.5-20.4,34.4-29.5,59.3-26.8c13.5,1.5,25.3,7.3,35.1,16.8c1.6,1.5,2.9,2.1,5.2,1.6c11.5-2.6,22.6-6.8,33-12.5
	c0.9-0.5,1.9-0.9,3.3-1.7c-2.1,6.9-5.5,13.5-10.1,19.1c-4.5,5.5-9.7,10.4-15.5,14.4c11.7-1.1,22.7-4.4,33.4-8.8l0.6,0.8
	c-5,5.9-9.8,11.9-15.2,17.5c-4.3,4.5-9.3,8.1-13.9,12.3c-0.9,0.8-1.4,1.9-1.4,3.1c0.9,31.2-6.4,62.1-21.1,89.7
	c-19.1,35.8-46.9,62.7-84.3,78.8c-25,10.8-51.2,14.9-78.3,13.9c-22.7-0.8-45-6.1-65.6-15.5c-7.4-3.4-14.3-7.4-21.5-11.2L105.5,351.1
	z"/>
</svg>
