<?xml version="1.0" encoding="utf-8"?>
<!-- Generator: Adobe Illustrator 21.0.2, SVG Export Plug-In . SVG Version: 6.00 Build 0)  -->
<svg version="1.1" id="Capa_1" xmlns="http://www.w3.org/2000/svg" xmlns:xlink="http://www.w3.org/1999/xlink" x="0px" y="0px"
	 viewBox="0 0 512 512" style="enable-background:new 0 0 512 512;" xml:space="preserve">
<style type="text/css">
	.st0{fill:#9E776C;}
	.st1{fill:#745F59;}
</style>
<rect x="278.5" y="158.1" transform="matrix(0.7071 -0.7071 0.7071 0.7071 -104.1072 293.5196)" class="st0" width="47.6" height="228.6"/>
<rect x="298.5" y="149.8" transform="matrix(0.7071 -0.7071 0.7071 0.7071 -95.8165 296.9568)" class="st0" width="24.1" height="228.6"/>
<path class="st0" d="M266.7,388.1H56.1c-5,0-9.1,4.1-9.1,9.1v56.6h228.7v-56.6C275.8,392.1,271.7,388.1,266.7,388.1z"/>
<rect x="97.2" y="100.4" transform="matrix(0.7071 -0.7071 0.7071 0.7071 -59.2879 187.6767)" class="st0" width="199.4" height="130.1"/>
<path class="st1" d="M221.4,48.9l-39.5,39.5l39.5,39.5c14.7,14.7,14.7,38.7,0,53.4l-74.8,74.8l25.8,25.8l141-141L221.4,48.9z"/>
<g>
	<path class="st0" d="M184,305l-14.3,14.3c-4.7,4.7-12.4,4.7-17.2,0L43.1,209.8c-4.7-4.7-4.7-12.4,0-17.2l14.3-14.3
		c4.7-4.7,12.4-4.7,17.2,0L184,287.8C188.7,292.5,188.7,300.2,184,305z"/>
	<path class="st0" d="M349,139.9l-14.3,14.3c-4.7,4.7-12.4,4.7-17.2,0L208.2,44.7c-4.7-4.7-4.7-12.4,0-17.2l14.3-14.3
		c4.7-4.7,12.4-4.7,17.2,0L349,122.7C353.8,127.4,353.8,135.1,349,139.9z"/>
</g>
<g>
	<path class="st1" d="M349,122.7L239.6,13.3c-4.7-4.7-12.4-4.7-17.2,0l-14.3,14.3c-0.1,0.1-0.2,0.3-0.4,0.4
		c4.8-4.4,12.2-4.3,16.8,0.4L334,137.7c4.6,4.6,4.7,12,0.4,16.8c0.1-0.1,0.3-0.2,0.4-0.4l14.3-14.3
		C353.8,135.1,353.8,127.4,349,122.7z"/>
	<path class="st1" d="M184,287.8L74.5,178.4c-4.7-4.7-12.4-4.7-17.2,0l-14.3,14.3c-0.1,0.1-0.2,0.3-0.4,0.4
		c4.8-4.4,12.2-4.3,16.8,0.4l109.4,109.4c4.6,4.6,4.7,12,0.4,16.8c0.1-0.1,0.3-0.2,0.4-0.4L184,305
		C188.7,300.2,188.7,292.5,184,287.8z"/>
</g>
<path class="st0" d="M508.6,440.5l-38.3,38.3c-4.5,4.5-11.8,4.5-16.4,0L345.4,370.2c-4.5-4.5-4.5-11.8,0-16.4l38.3-38.3
	c4.5-4.5,11.8-4.5,16.4,0l108.6,108.6C513.1,428.6,513.1,436,508.6,440.5z"/>
<path class="st1" d="M508.6,424.1L400,315.5c-4.5-4.5-11.8-4.5-16.4,0l-38.3,38.3l0,0l14.6-14.6c4.5-4.5,11.8-4.5,16.4,0
	l108.6,108.6c4.5,4.5,4.5,11.8,0,16.4l-14.6,14.6l0,0l38.3-38.3C513.1,436,513.1,428.6,508.6,424.1z"/>
<path class="st1" d="M266.7,388.1h-40.6l-0.1,36.6c0,7.1-5.8,12.9-12.9,12.9H47v16.2h228.7v-56.6
	C275.8,392.1,271.7,388.1,266.7,388.1z"/>
<path class="st0" d="M296,447.3H26.8C12,447.3,0,459.3,0,474.1v22.8c0,3,2.4,5.4,5.4,5.4h312c3,0,5.4-2.4,5.4-5.4v-22.8
	C322.8,459.3,310.8,447.3,296,447.3z"/>
<path class="st0" d="M322.8,472.9c-0.6-14.2-12.4-25.6-26.7-25.6h-23.5l-0.1,36.3c0,4.3-3.5,7.8-7.8,7.8H5.4c-3,0-5.4-2.4-5.4-5.4
	v10.8c0,3,2.4,5.4,5.4,5.4h312c0.4,0,0.7,0,1-0.1c0.1,0,0.3-0.1,0.4-0.1c0.2-0.1,0.4-0.1,0.6-0.2c0.2-0.1,0.3-0.2,0.5-0.2
	c0.1-0.1,0.3-0.1,0.4-0.2c0.2-0.1,0.4-0.2,0.5-0.4c0.1-0.1,0.2-0.1,0.2-0.2c0.2-0.2,0.4-0.4,0.5-0.5c0,0,0.1-0.1,0.1-0.1
	c0.2-0.2,0.3-0.5,0.5-0.7c0,0,0-0.1,0-0.1c0.1-0.3,0.3-0.5,0.4-0.8c0,0,0,0,0,0c0.1-0.3,0.2-0.6,0.2-0.9v0v0c0-0.2,0.1-0.5,0.1-0.7
	L322.8,472.9z"/>
</svg>
