<?xml version="1.0" encoding="utf-8"?>
<!-- Generator: Adobe Illustrator 21.0.2, SVG Export Plug-In . SVG Version: 6.00 Build 0)  -->
<svg version="1.1" id="Layer_1" xmlns="http://www.w3.org/2000/svg" xmlns:xlink="http://www.w3.org/1999/xlink" x="0px" y="0px"
	 viewBox="0 0 512 512" style="enable-background:new 0 0 512 512;" xml:space="preserve">
<style type="text/css">
	.st0{fill:#FFFFFF;}
	.st1{fill:none;}
</style>
<g id="Layer_1_1_">
	<g>
		<path d="M396.9,223.9C347.9,193,299,162,250,131"/>
		<g>
			<path class="st0" d="M401.8,215.6c-49-30.9-97.9-62-146.9-92.9c-10.6-6.8-20.3,9.9-9.8,16.6c49,30.9,97.9,62,146.9,93
				C402.5,238.9,412.3,222.4,401.8,215.6L401.8,215.6z"/>
		</g>
	</g>
	<g>
		<line class="st1" x1="152.4" y1="202.5" x2="152.4" y2="380.7"/>
		<g>
			<path class="st0" d="M142.3,202c0,59.8,0,119.5,0,179.2c0,12.4,19.4,12.4,19.4,0c0-59.8,0-119.5,0-179.2
				C161.7,189.7,142.3,189.7,142.3,202L142.3,202z"/>
		</g>
	</g>
	<g>
		<line class="st1" x1="362.7" y1="205.7" x2="362.7" y2="380.7"/>
		<g>
			<path class="st0" d="M353.1,206.2c0,58.3,0,116.6,0,174.9c0,12.4,19.4,12.4,19.4,0c0-58.3,0-116.6,0-174.9
				C372.5,193.8,353.1,193.8,353.1,206.2L353.1,206.2z"/>
		</g>
	</g>
	<g>
		<path d="M362.8,381.2c-70.3,0-140.5,0.1-210.8,0.1"/>
		<g>
			<path class="st0" d="M362.8,371.6c-70.3,0-140.5,0.1-210.8,0.1c-12.5,0-12.5,19.2,0,19.2c70.3,0,140.5-0.1,210.8-0.1
				C375.3,390.8,375.3,371.6,362.8,371.6L362.8,371.6z"/>
		</g>
	</g>
	<g>
		<line class="st1" x1="231.2" y1="261.2" x2="231.2" y2="380.7"/>
		<g>
			<path class="st0" d="M221,261.5c0,39.9,0,79.8,0,119.8c0,12.4,19.4,12.4,19.4,0c0-39.9,0-79.8,0-119.8
				C240.4,249.2,221,249.1,221,261.5L221,261.5z"/>
		</g>
	</g>
	<g>
		<line class="st1" x1="288.3" y1="261.2" x2="288.3" y2="380.7"/>
		<g>
			<path class="st0" d="M278.2,261.5c0,39.9,0,79.8,0,119.8c0,12.4,19.4,12.4,19.4,0c0-39.9,0-79.8,0-119.8
				C297.7,249.2,278.2,249.1,278.2,261.5L278.2,261.5z"/>
		</g>
	</g>
	<g>
		<line class="st1" x1="231.2" y1="261.2" x2="288.3" y2="261.2"/>
		<g>
			<path class="st0" d="M230.7,271.1c19.1,0,38.2,0,57.2,0c12.5,0,12.5-19.2,0-19.2c-19.1,0-38.2,0-57.2,0
				C218.2,251.9,218.2,271.1,230.7,271.1L230.7,271.1z"/>
		</g>
	</g>
	<g>
		<path d="M249.8,131.5c-44.7,30.6-89.5,61.1-134.3,91.8"/>
		<g>
			<path class="st0" d="M244.8,123.3c-44.7,30.6-89.5,61.1-134.4,91.8c-4.3,3-6.3,8.5-3.5,13.1c2.5,4.3,8.9,6.4,13.3,3.4
				c44.7-30.6,89.5-61.2,134.4-91.8c4.3-3,6.3-8.5,3.5-13.1C255.6,122.4,249.2,120.3,244.8,123.3L244.8,123.3z"/>
		</g>
	</g>
</g>
</svg>
