<?xml version="1.0" encoding="utf-8"?>
<!-- Generator: Adobe Illustrator 21.0.0, SVG Export Plug-In . SVG Version: 6.00 Build 0)  -->
<svg version="1.1" id="Capa_1" xmlns="http://www.w3.org/2000/svg" xmlns:xlink="http://www.w3.org/1999/xlink" x="0px" y="0px"
	 viewBox="0 0 510 510" style="enable-background:new 0 0 510 510;" xml:space="preserve">
<style type="text/css">
	.st0{fill:#FFFFFF;}
</style>
<g>
	<g id="post-instagram">
		<path class="st0" d="M398,70H110c-19.8,0-36,16.2-36,36v288c0,19.8,16.2,36,36,36h288c19.8,0,36-16.2,36-36V106
			C434,86.2,417.8,70,398,70z M254,178c39.6,0,72,32.4,72,72s-32.4,72-72,72s-72-32.4-72-72S214.4,178,254,178z M119,394
			c-5.4,0-9-3.6-9-9V232h37.8c-1.8,5.4-1.8,12.6-1.8,18c0,59.4,48.6,108,108,108s108-48.6,108-108c0-5.4,0-12.6-1.8-18H398v153
			c0,5.4-3.6,9-9,9L119,394L119,394z M398,151c0,5.4-3.6,9-9,9h-36c-5.4,0-9-3.6-9-9v-36c0-5.4,3.6-9,9-9h36c5.4,0,9,3.6,9,9V151z"
			/>
	</g>
</g>
</svg>
