<?xml version="1.0" encoding="utf-8"?>
<!-- Generator: Adobe Illustrator 21.0.2, SVG Export Plug-In . SVG Version: 6.00 Build 0)  -->
<svg version="1.1" id="Layer_1" xmlns="http://www.w3.org/2000/svg" xmlns:xlink="http://www.w3.org/1999/xlink" x="0px" y="0px"
	 viewBox="0 0 512 512" style="enable-background:new 0 0 512 512;" xml:space="preserve">
<style type="text/css">
	.st0{fill:#FF3F56;}
	.st1{fill:#9498a1;}
</style>
<path class="st0" d="M457,471H40V70.5C40,48.1,58.1,30,80.5,30h336c22.4,0,40.5,18.1,40.5,40.5V471z"/>
<rect x="356" y="107" class="st1" width="14" height="349"/>
<rect x="378" y="107" class="st1" width="14" height="349"/>
<polygon class="st1" points="373.6,72.7 356.6,102.1 390.6,102.1 "/>
<g>
	<rect x="70" y="95" class="st1" width="258" height="7.1"/>
	<rect x="70.3" y="118.5" class="st1" width="258" height="7.1"/>
	<rect x="70.7" y="142" class="st1" width="258" height="7.1"/>
	<rect x="71" y="165.5" class="st1" width="258" height="7.1"/>
	<rect x="71.3" y="188.9" class="st1" width="258" height="7.1"/>
	<rect x="71.7" y="212.4" class="st1" width="258" height="7.1"/>
	<rect x="72" y="235.9" class="st1" width="258" height="7.1"/>
</g>
<rect x="248.5" y="297" class="st1" width="79.5" height="79.5"/>
</svg>
