<svg xmlns="http://www.w3.org/2000/svg" viewBox="0 0 118.8 137.45"><defs><style>.cls-1{fill:#231f20;}</style></defs><title>openmic_music</title><g id="Layer_2" data-name="Layer 2"><g id="icons"><g id="music_notes" data-name="music notes"><path class="cls-1" d="M118.77,95.66V.8s-16.95-1-29.46,5.27C86,7.73,82.57,9.74,78.95,11.87c-4.42,2.6-9.13,5.38-14,7.67V0H61.53V18.86A6.43,6.43,0,0,0,56.12,20a6.77,6.77,0,0,0-2.67,3.69,38.67,38.67,0,0,1-6,1L33.62,25.87l0,74.07c-6.46-2.89-15.32-1.78-22.75,3.51C.65,110.71-3,123.06,2.68,131.05s18.56,8.58,28.74,1.33A24.41,24.41,0,0,0,42,110.74V61.57l5.72-.52c12-.93,23.12-7.47,32.92-13.23,3.57-2.1,6.94-4.09,10.16-5.7,6.41-3.21,14-4.32,19.5-4.66V84.86C103.86,82,95,83.08,87.58,88.38,77.39,95.63,73.74,108,79.42,116s18.56,8.58,28.75,1.33A24.72,24.72,0,0,0,118.77,95.66ZM78.95,33.9c-9.48,5.58-20.22,11.9-31.48,12.77L42,47.16V39.54L47.75,39c12-.93,23.12-7.46,32.92-13.23,2.46-1.45,4.82-2.84,7.11-4.09v6.18a6.93,6.93,0,0,0-8.25,5.67ZM110.32,12a63.18,63.18,0,0,0-14.24,2.4c-.13-.25-.28-.5-.41-.77A16.66,16.66,0,0,0,91.84,8.6C98,5.76,105.08,4.75,110.32,4.42ZM91.79,15.95l-.64.28v-.83C91.37,15.56,91.58,15.75,91.79,15.95Zm-.64,4a35.56,35.56,0,0,1,3.28-1.4A7.12,7.12,0,0,0,102.28,20c-1.46,0-2.82-.74-4.27-2.58a62.05,62.05,0,0,1,12.32-2V23a58.15,58.15,0,0,0-19.17,4.2ZM47.75,28a41.73,41.73,0,0,0,6.1-.95c0,.07.07.14.11.2,1.5,2.1,5.29,2.29,8,.38a6.58,6.58,0,0,0,2.64-4.12,150.29,150.29,0,0,0,16.08-8.75c2.46-1.45,4.82-2.84,7.11-4.09v7.18c-2.84,1.5-5.76,3.21-8.83,5-9.48,5.58-20.22,11.9-31.48,12.77L42,36.15V28.53Zm41.57,11.1c-3.33,1.66-6.75,3.67-10.37,5.81-9.48,5.58-20.22,11.9-31.48,12.77l-5.44.5V50.56L47.75,50c12-.92,23.12-7.46,32.92-13.23h0c1.65,1.59,4.61,1.48,7.12-.17A7.61,7.61,0,0,0,91.15,31c6.34-3.08,13.73-4.16,19.17-4.5v7.61C104.46,34.4,96.36,35.59,89.31,39.11Z"/></g></g></g></svg>