<svg xmlns="http://www.w3.org/2000/svg" viewBox="0 0 268.6 268.6"><title>openmic_comedy</title><g id="Layer_2" data-name="Layer 2"><g id="Layer_1-2" data-name="Layer 1"><path d="M134.3,268.6C60.2,268.6,0,208.3,0,134.3S60.3,0,134.3,0,268.6,60.3,268.6,134.3,208.4,268.6,134.3,268.6Zm0-264.4a130,130,0,1,0,130,130A130.12,130.12,0,0,0,134.3,4.2Z"/><path d="M109.5,119.6a2.11,2.11,0,0,1-2.1-2.1,35.9,35.9,0,1,0-71.8,0,2.1,2.1,0,0,1-4.2,0,40.2,40.2,0,1,1,80.4,0A2.37,2.37,0,0,1,109.5,119.6Z"/><path d="M235.3,119.6a2.11,2.11,0,0,1-2.1-2.1,35.9,35.9,0,1,0-71.8,0,2.11,2.11,0,0,1-2.1,2.1,2.18,2.18,0,0,1-2.1-2.1,40.2,40.2,0,1,1,80.4,0A2.45,2.45,0,0,1,235.3,119.6Z"/><path d="M134.3,242.9A92,92,0,0,1,42.9,158a2.12,2.12,0,0,1,1-2,2.17,2.17,0,0,1,2.2-.1,190.78,190.78,0,0,0,88.2,21.7,190.18,190.18,0,0,0,88.2-21.7,2.17,2.17,0,0,1,2.2.1,2.22,2.22,0,0,1,1,2A92,92,0,0,1,134.3,242.9ZM47.6,161.6a87.3,87.3,0,0,0,173.4,0A194.53,194.53,0,0,1,134.3,182,195.88,195.88,0,0,1,47.6,161.6Z"/></g></g></svg>