<svg xmlns="http://www.w3.org/2000/svg" viewBox="0 0 46.43 41.04"><defs><style>.cls-1{fill:#3a3a3a;}</style></defs><title>openmic</title><g id="Layer_2" data-name="Layer 2"><g id="icons"><path id="icon" class="cls-1" d="M40.87,1.89a12,12,0,0,0-17,15.89L17,29.88a4.74,4.74,0,0,0,.82,6.06,10.82,10.82,0,0,1-2.07,2.2c-1.26.91-2.39,1.32-3.75.48a2.4,2.4,0,0,1-1.13-1.93,9,9,0,0,1,.5-3.39c.8-2.65,2.37-5.79,3.37-8.64a10.26,10.26,0,0,0,.78-5.33A3.68,3.68,0,0,0,13.89,17,4.79,4.79,0,0,0,9,16.72,11.72,11.72,0,0,0,4.65,21.1,41.34,41.34,0,0,0,0,32.45,1,1,0,0,0,1.94,33,39.48,39.48,0,0,1,6.31,22.16,9.88,9.88,0,0,1,9.88,18.5a2.79,2.79,0,0,1,2.94.12c.65.43.86,1,.84,2.06a14.24,14.24,0,0,1-1.07,4.09c-1.2,3.17-3.08,6.81-3.6,10-.37,2.07,0,4.29,1.95,5.52l0,0a5,5,0,0,0,6-.59A12.74,12.74,0,0,0,19.52,37a4.74,4.74,0,0,0,5.67-1.88L33.63,24A12,12,0,0,0,40.87,1.89ZM37.69,3.11c.26-.42,1.28-.27,2.28.35s1.59,1.46,1.33,1.89S40,5.62,39,5,37.43,3.53,37.69,3.11Zm2.78,7.72c-.48,1.07-1.31,1.74-1.85,1.5S38,11,38.5,10s1.31-1.74,1.85-1.5S41,9.76,40.47,10.83ZM33.79,6.42c.87-.79,1.89-1.07,2.29-.63s0,1.44-.84,2.22-1.89,1.07-2.3.63S32.92,7.21,33.79,6.42ZM29.86,2.5c1.07-.48,2.14-.43,2.38.11S31.81,4,30.74,4.46s-2.13.43-2.38-.11S28.79,3,29.86,2.5Zm-4.11,9.72c-.15,1.17-.75,2-1.34,2s-1-1.08-.8-2.24.75-2,1.34-2S25.89,11.06,25.74,12.22Zm4.49,3.87c-.65,1-1.58,1.5-2.08,1.17s-.37-1.39.28-2.36,1.58-1.5,2.07-1.17S30.89,15.11,30.24,16.09Zm4.4,2.85c-.78.88-1.77,1.28-2.21.88s-.18-1.43.59-2.31,1.76-1.27,2.21-.88S35.41,18.06,34.64,18.94Zm4.11,2.6c-1,.67-2,.82-2.36.33s.16-1.43,1.12-2.1,2-.82,2.36-.33S39.71,20.87,38.75,21.54Zm5.2-3.72a.66.66,0,0,1-.81.47h0a39.64,39.64,0,0,1-9.91-4.63,38,38,0,0,1-8.07-6.84.66.66,0,1,1,1-.87,36.8,36.8,0,0,0,7.79,6.6A41.93,41.93,0,0,0,40.66,16a27.74,27.74,0,0,0,2.83,1A.66.66,0,0,1,43.95,17.81Zm-.1-3.39c-.59,0-1.06-1-1-2.14s.52-2.11,1.11-2.1,1.06,1,1,2.14S44.44,14.44,43.85,14.42Z"/></g></g></svg>