<svg xmlns="http://www.w3.org/2000/svg" viewBox="0 0 796.08 736"><defs><style>.cls-1{fill:#d8c9c4;}.cls-2{fill:#b19289;}.cls-3{fill:#b5978f;}.cls-4{fill:#b99d95;}.cls-5{fill:#bda29b;}.cls-6{fill:#c1a8a1;}.cls-7{fill:#c5ada7;}.cls-8,.cls-9{fill:#775951;}.cls-9{font-size:123px;font-family:Palitoon-Regular, Palitoon;}.cls-10{letter-spacing:-0.02em;}.cls-11{letter-spacing:-0.01em;}</style></defs><title>Schedule</title><g id="Layer_2" data-name="Layer 2"><rect class="cls-1" width="736" height="736" rx="46.1" ry="46.1"/><rect class="cls-2" x="39" y="28" width="654" height="141"/><rect class="cls-2" x="39" y="219" width="99" height="99"/><rect class="cls-3" x="150" y="219" width="99" height="99"/><rect class="cls-4" x="261" y="219" width="99" height="99"/><rect class="cls-5" x="372" y="219" width="99" height="99"/><rect class="cls-6" x="483" y="219" width="99" height="99"/><rect class="cls-7" x="594" y="219" width="99" height="99"/><rect class="cls-2" x="40" y="465" width="99" height="99"/><rect class="cls-3" x="151" y="465" width="99" height="99"/><rect class="cls-4" x="262" y="465" width="99" height="99"/><rect class="cls-8" x="373" y="465" width="99" height="99"/><rect class="cls-6" x="484" y="465" width="99" height="99"/><rect class="cls-7" x="595" y="465" width="99" height="99"/><rect class="cls-2" x="594" y="344" width="99" height="99"/><rect class="cls-2" x="483" y="344" width="99" height="99"/><rect class="cls-8" x="372" y="344" width="99" height="99"/><rect class="cls-8" x="261" y="344" width="99" height="99"/><rect class="cls-6" x="150" y="344" width="99" height="99"/><rect class="cls-7" x="39" y="344" width="99" height="99"/><rect class="cls-2" x="594" y="583" width="99" height="99"/><rect class="cls-3" x="483" y="583" width="99" height="99"/><rect class="cls-4" x="372" y="583" width="99" height="99"/><rect class="cls-5" x="261" y="583" width="99" height="99"/><rect class="cls-6" x="150" y="583" width="99" height="99"/><rect class="cls-7" x="39" y="583" width="99" height="99"/><text class="cls-9" transform="translate(203.6 133.17)"><tspan class="cls-10">S</tspan><tspan class="cls-11" x="49.32" y="0">c</tspan><tspan x="87.7" y="0">hedule</tspan></text></g></svg>