<?xml version="1.0" encoding="utf-8"?>
<!-- Generator: Adobe Illustrator 21.0.2, SVG Export Plug-In . SVG Version: 6.00 Build 0)  -->
<svg version="1.1" id="Capa_1" xmlns="http://www.w3.org/2000/svg" xmlns:xlink="http://www.w3.org/1999/xlink" x="0px" y="0px"
	 viewBox="0 0 512 512" style="enable-background:new 0 0 512 512;" xml:space="preserve">
<style type="text/css">
	.st0{fill:#9E776C;}
	.st1{fill:#97ABA7;}
	.st2{fill:#513730;}
	.st3{fill:#80746F;}
</style>
<polygon class="st0" points="355.5,381.8 303.5,390.6 234,402.3 116.3,274.2 152.3,239.4 188.5,204.4 "/>
<polygon class="st1" points="355.5,381.8 303.5,390.6 152.3,239.4 188.5,204.4 "/>
<path class="st0" d="M473,135.1l-52.4,24c0,0-0.1,0-0.1,0c-0.3,0.1-0.7,0.3-1,0.4c-0.2,0.1-0.3,0.1-0.5,0.2
	c-0.3,0.1-0.6,0.2-0.9,0.3c-0.2,0.1-0.4,0.1-0.6,0.2c-0.2,0.1-0.4,0.1-0.6,0.1c-0.8,0.1-1.6,0.2-2.4,0.2c-0.4,0-0.9,0-1.3-0.1
	c-0.1,0-0.2,0-0.3,0c-0.3,0-0.6-0.1-0.9-0.1c-0.1,0-0.3-0.1-0.4-0.1c-0.3-0.1-0.5-0.1-0.8-0.2c-0.1,0-0.3-0.1-0.4-0.1
	c-0.4-0.1-0.7-0.2-1.1-0.4c-0.2-0.1-0.3-0.1-0.5-0.2c-0.2-0.1-0.4-0.2-0.7-0.3c-0.2-0.1-0.3-0.2-0.5-0.2c-0.3-0.1-0.5-0.3-0.7-0.4
	c-0.1-0.1-0.2-0.1-0.3-0.2c-0.4-0.2-0.7-0.5-1.1-0.7c0,0-0.1-0.1-0.2-0.1c-0.3-0.2-0.6-0.5-0.9-0.8c0,0-0.1-0.1-0.1-0.1l-39.5-36.2
	l-185.5,82.3c-2,0.9-4,1.3-6.1,1.3c-5.8,0-11.3-3.3-13.7-8.9c-0.1-0.2-0.2-0.5-0.3-0.7c-2.9-7.4,0.6-15.9,7.9-19.1l185.6-82.3
	l-0.1-52c0-0.1,0-0.1,0-0.2c0-0.3,0-0.6,0-0.9c0-0.2,0-0.4,0.1-0.6c0-0.3,0.1-0.5,0.1-0.8c0-0.3,0.1-0.5,0.1-0.7
	c0-0.2,0.1-0.4,0.2-0.6c0.1-0.3,0.1-0.6,0.2-0.8c0.1-0.2,0.1-0.3,0.2-0.5c0.1-0.3,0.2-0.6,0.3-0.8c0.1-0.2,0.2-0.4,0.3-0.5
	c0.1-0.3,0.2-0.5,0.4-0.7c0.1-0.2,0.3-0.4,0.4-0.6c0.1-0.2,0.2-0.4,0.4-0.6c0.2-0.2,0.4-0.5,0.5-0.7c0.1-0.1,0.2-0.3,0.3-0.4
	c0.2-0.2,0.4-0.5,0.6-0.7c0.1-0.1,0.2-0.3,0.4-0.4c0.2-0.2,0.4-0.4,0.7-0.6c0.1-0.1,0.3-0.3,0.4-0.4c0.2-0.2,0.4-0.3,0.6-0.5
	c0.2-0.1,0.4-0.3,0.6-0.4c0.2-0.1,0.4-0.2,0.5-0.3c0.3-0.2,0.5-0.3,0.8-0.4c0.1,0,0.1-0.1,0.2-0.1l51.7-25.7
	c7.4-3.7,16.5-0.7,20.2,6.8c3.7,7.4,0.7,16.5-6.8,20.1l-43.3,21.6l0.1,45.9l34.5,31.7l43.3-19.9c7.6-3.5,16.5-0.1,19.9,7.4
	C483.9,122.7,480.6,131.6,473,135.1z"/>
<path class="st1" d="M473,135.1l-52.4,24c0,0-0.1,0-0.1,0c-0.3,0.1-0.7,0.3-1,0.4c-0.2,0.1-0.3,0.1-0.5,0.2
	c-0.3,0.1-0.6,0.2-0.9,0.3c-0.2,0.1-0.4,0.1-0.6,0.2c-0.2,0.1-0.4,0.1-0.6,0.1c-0.8,0.1-1.6,0.2-2.4,0.2c-0.4,0-0.9,0-1.3-0.1
	c-0.1,0-0.2,0-0.3,0c-0.3,0-0.6-0.1-0.9-0.1c-0.1,0-0.3-0.1-0.4-0.1c-0.3-0.1-0.5-0.1-0.8-0.2c-0.1,0-0.3-0.1-0.4-0.1
	c-0.4-0.1-0.7-0.2-1.1-0.4c-0.2-0.1-0.3-0.1-0.5-0.2c-0.2-0.1-0.4-0.2-0.7-0.3c-0.2-0.1-0.3-0.2-0.5-0.2c-0.3-0.1-0.5-0.3-0.7-0.4
	c-0.1-0.1-0.2-0.1-0.3-0.2c-0.4-0.2-0.7-0.5-1.1-0.7c0,0-0.1-0.1-0.2-0.1c-0.3-0.2-0.6-0.5-0.9-0.8c0,0-0.1-0.1-0.1-0.1l-39.5-36.2
	l-185.5,82.3c-2,0.9-4,1.3-6.1,1.3c-5.8,0-11.3-3.3-13.7-8.9c-0.1-0.2-0.2-0.5-0.3-0.7L382.7,96l34.5,31.7l43.3-19.9
	c7.6-3.5,16.5-0.1,19.9,7.4C483.9,122.7,480.6,131.6,473,135.1z"/>
<path class="st2" d="M173.8,260.9c-12.9,12.6-30.8,19.9-50.4,18.7c-32.9-2.1-59.5-28.7-61.7-61.6c-1.3-19.6,6.1-37.6,18.7-50.5
	c12.9-13.3,31.4-21.1,51.6-19.8c32.9,2.1,59.5,28.7,61.6,61.6C195,229.5,187.1,248,173.8,260.9z"/>
<path class="st3" d="M487.6,423.9v41.3c0,25.8-21,46.8-46.8,46.8H71.3c-25.8,0-46.8-21-46.8-46.8v-41.3c0-25.8,21-46.8,46.8-46.8
	h369.5C466.6,377.1,487.6,398.1,487.6,423.9z"/>
<path class="st0" d="M173.8,260.9l-93.4-93.4c12.9-13.3,31.4-21.1,51.6-19.8c32.9,2.1,59.5,28.7,61.6,61.6
	C195,229.5,187.1,248,173.8,260.9z"/>
<path class="st3" d="M487.6,423.9v17.6H24.4v-17.6c0-25.8,21-46.8,46.8-46.8h369.5C466.6,377.1,487.6,398.1,487.6,423.9z"/>
</svg>
